<svg xmlns="http://www.w3.org/2000/svg" width="600" height="800" viewBox="0 0 600 800"><rect width="100%" height="100%" fill="#f5f5f5"/><path fill="#000000" d="M148.825 380.255h-18.94v11.83h14.93v6.1h-14.93v12.07h18.94v6.34h-26.9v-42.66h26.9zm5.96-7.5h7.29v43.84h-7.29zm14.66 0h7.29v43.84h-7.29zm20.33 25.23h13.75q0-1.42-.4-2.67-.4-1.26-1.2-2.2-.79-.95-2.02-1.49-1.22-.55-2.84-.55-3.16 0-4.98 1.8-1.81 1.8-2.31 5.11m18.58 4.39h-18.73q.18 2.33.83 4.03.65 1.69 1.71 2.8t2.52 1.65q1.46.55 3.23.55t3.05-.42q1.29-.41 2.25-.91.95-.5 1.68-.91.72-.42 1.4-.42.91 0 1.36.68l2.09 2.66q-1.21 1.41-2.71 2.37-1.51.96-3.15 1.54-1.63.57-3.33.81-1.7.23-3.29.23-3.15 0-5.87-1.04-2.71-1.05-4.72-3.1-2-2.05-3.16-5.08-1.15-3.02-1.15-7 0-3.1 1.01-5.83 1-2.73 2.87-4.75 1.88-2.02 4.58-3.2t6.09-1.18q2.86 0 5.28.92 2.42.91 4.16 2.67 1.74 1.75 2.73 4.3.98 2.55.98 5.83 0 1.65-.35 2.23-.35.57-1.36.57m62.93-28.44h5.99v42.66h-7v-27.55q0-1.66.18-3.57l-12.89 24.22q-.91 1.74-2.8 1.74h-1.12q-1.89 0-2.81-1.74l-13.04-24.31q.09.97.15 1.92.06.94.06 1.74v27.55h-6.99v-42.66h5.99q.53 0 .91.03.39.03.7.15t.56.38q.25.27.48.71l12.78 23.69q.5.94.93 1.95.42 1 .84 2.06.41-1.09.85-2.11t.95-1.96l12.59-23.63q.24-.44.5-.71.27-.26.58-.38t.69-.15q.39-.03.92-.03m30.32 34.84v-5.1q-3.15.15-5.31.54-2.15.4-3.45 1.02t-1.86 1.45q-.56.82-.56 1.8 0 1.91 1.14 2.74 1.13.83 2.96.83 2.25 0 3.88-.81 1.64-.82 3.2-2.47m-15.4-15.9-1.29-2.33q5.22-4.78 12.56-4.78 2.66 0 4.75.87 2.1.87 3.54 2.42 1.45 1.55 2.2 3.7.75 2.16.75 4.72v19.12h-3.3q-1.03 0-1.59-.31t-.89-1.25l-.65-2.19q-1.15 1.04-2.24 1.82t-2.27 1.31-2.52.81q-1.35.28-2.97.28-1.92 0-3.54-.51-1.62-.52-2.8-1.55-1.18-1.04-1.83-2.57t-.65-3.57q0-1.15.38-2.29.39-1.13 1.26-2.16.87-1.04 2.25-1.95 1.39-.92 3.41-1.59 2.02-.68 4.71-1.11 2.68-.43 6.13-.52v-1.77q0-3.03-1.29-4.49-1.3-1.47-3.75-1.47-1.77 0-2.94.42-1.16.41-2.05.93-.88.51-1.6.93-.73.41-1.61.41-.77 0-1.3-.4t-.86-.93m40.42 7.85q1.36 0 2.36-.37t1.67-1.02q.66-.65 1-1.56.34-.92.34-2.01 0-2.24-1.34-3.55-1.35-1.31-4.03-1.31-2.69 0-4.03 1.31t-1.34 3.55q0 1.06.34 1.98.34.91 1 1.58.67.66 1.68 1.03 1.02.37 2.35.37m8.23 17.23q0-.89-.53-1.45t-1.45-.87q-.91-.31-2.14-.46-1.22-.14-2.59-.22-1.37-.07-2.83-.13t-2.85-.24q-1.21.68-1.96 1.6-.75.91-.75 2.12 0 .8.39 1.49.4.69 1.27 1.2.87.5 2.26.78t3.39.28q2.04 0 3.51-.31 1.48-.31 2.44-.86.95-.54 1.4-1.3.44-.75.44-1.63m-1.45-30.59h8.71v2.71q0 1.3-1.57 1.59l-2.71.5q.62 1.57.62 3.43 0 2.24-.9 4.05-.9 1.82-2.49 3.08-1.6 1.27-3.76 1.97-2.17.69-4.68.69-.89 0-1.71-.09-.83-.09-1.62-.23-1.42.85-1.42 1.91 0 .92.84 1.35.84.42 2.23.6 1.38.18 3.15.22 1.77.05 3.63.19 1.86.15 3.63.52t3.16 1.16q1.38.8 2.23 2.17.84 1.37.84 3.53 0 2-.99 3.89t-2.86 3.37q-1.88 1.47-4.61 2.37-2.72.9-6.21.9-3.42 0-5.95-.66-2.54-.67-4.22-1.77-1.68-1.11-2.51-2.56-.83-1.44-.83-3 0-2.13 1.29-3.56 1.28-1.43 3.52-2.29-1.21-.62-1.92-1.65-.7-1.03-.7-2.71 0-.68.25-1.4.25-.73.73-1.43.49-.71 1.23-1.35.74-.63 1.74-1.13-2.3-1.24-3.61-3.31-1.32-2.06-1.32-4.83 0-2.25.9-4.06t2.51-3.1q1.61-1.28 3.81-1.96 2.19-.68 4.79-.68 1.95 0 3.66.4t3.12 1.17m29.3 21.41v-5.1q-3.16.15-5.31.54-2.16.4-3.45 1.02-1.3.62-1.86 1.45-.56.82-.56 1.8 0 1.91 1.13 2.74 1.14.83 2.97.83 2.24 0 3.88-.81 1.63-.82 3.2-2.47m-15.4-15.9-1.3-2.33q5.22-4.78 12.57-4.78 2.65 0 4.75.87 2.09.87 3.54 2.42 1.44 1.55 2.2 3.7.75 2.16.75 4.72v19.12h-3.31q-1.03 0-1.59-.31t-.88-1.25l-.65-2.19q-1.15 1.04-2.25 1.82-1.09.78-2.27 1.31t-2.52.81-2.96.28q-1.92 0-3.54-.51-1.63-.52-2.81-1.55-1.18-1.04-1.83-2.57-.64-1.53-.64-3.57 0-1.15.38-2.29.38-1.13 1.25-2.16.87-1.04 2.26-1.95 1.39-.92 3.41-1.59 2.02-.68 4.7-1.11 2.69-.43 6.14-.52v-1.77q0-3.03-1.3-4.49-1.3-1.47-3.75-1.47-1.77 0-2.93.42-1.17.41-2.05.93-.89.51-1.61.93-.72.41-1.61.41-.76 0-1.3-.4-.53-.4-.85-.93m51.09-6.55v3.01q0 .77-.26 1.51-.27.73-.71 1.21l-14.37 18.93h14.9v5.61h-23.36v-3.04q0-.5.23-1.19.24-.7.71-1.32l14.51-19.14h-14.6v-5.58zm5.61 0h7.31v30.27h-7.31zm8.32-8.82q0 .95-.39 1.77-.38.83-1.01 1.45-.64.62-1.49.99-.86.36-1.83.36-.95 0-1.79-.36-.84-.37-1.46-.99t-.99-1.45q-.37-.82-.37-1.77 0-.97.37-1.83.37-.85.99-1.47t1.46-.99 1.79-.37q.97 0 1.83.37.85.37 1.49.99.63.62 1.01 1.47.39.86.39 1.83m12.74 10.15.5 2.39q.92-.91 1.93-1.7 1.02-.78 2.16-1.32 1.13-.55 2.43-.86t2.83-.31q2.48 0 4.4.84t3.2 2.36 1.95 3.63q.66 2.11.66 4.65v19.26h-7.29v-19.26q0-2.78-1.26-4.3-1.27-1.52-3.87-1.52-1.89 0-3.54.86t-3.13 2.33v21.89h-7.28v-30.27h4.45q1.42 0 1.86 1.33m32.72 10.33h13.74q0-1.42-.39-2.67-.4-1.26-1.2-2.2-.8-.95-2.02-1.49-1.22-.55-2.85-.55-3.15 0-4.97 1.8-1.81 1.8-2.31 5.11m18.58 4.39h-18.73q.18 2.33.82 4.03.65 1.69 1.72 2.8 1.06 1.11 2.52 1.65 1.46.55 3.23.55t3.05-.42q1.28-.41 2.24-.91t1.68-.91q.73-.42 1.41-.42.91 0 1.35.68l2.1 2.66q-1.21 1.41-2.72 2.37-1.5.96-3.14 1.54-1.64.57-3.33.81-1.7.23-3.29.23-3.16 0-5.87-1.04-2.72-1.05-4.72-3.1-2.01-2.05-3.16-5.08-1.15-3.02-1.15-7 0-3.1 1-5.83 1.01-2.73 2.88-4.75t4.57-3.2 6.1-1.18q2.86 0 5.28.92 2.41.91 4.16 2.67 1.74 1.75 2.72 4.3.99 2.55.99 5.83 0 1.65-.35 2.23-.36.57-1.36.57"/></svg>