<svg xmlns="http://www.w3.org/2000/svg" width="600" height="800" viewBox="0 0 600 800"><rect width="100%" height="100%" fill="#f5f5f5"/><path fill="#000000" d="M148.1 401.12h14.07q5.18 0 9.03-1.3 3.85-1.29 6.41-3.71 2.55-2.41 3.81-5.88 1.26-3.46 1.26-7.73 0-4.06-1.26-7.35t-3.78-5.6-6.37-3.54q-3.85-1.22-9.1-1.22H148.1zm-18.83-50.89h32.9q10.15 0 17.57 2.38t12.25 6.65 7.18 10.22q2.34 5.95 2.34 13.02 0 7.35-2.45 13.47-2.45 6.13-7.35 10.54t-12.28 6.86q-7.39 2.45-17.26 2.45H148.1v35.63h-18.83zm99.19 33.74 1.05 8.12q3.36-6.44 7.98-10.12 4.62-3.67 10.92-3.67 4.97 0 7.98 2.17l-1.12 12.95q-.35 1.26-1.01 1.78-.67.53-1.79.53-1.05 0-3.11-.35-2.07-.35-4.03-.35-2.87 0-5.11.84t-4.02 2.41q-1.79 1.58-3.15 3.82-1.37 2.24-2.56 5.11v44.24H213.2v-71.82h10.15q2.66 0 3.71.94 1.05.95 1.4 3.4m74.9 48.93v-12.11q-7.49.35-12.6 1.29-5.11.95-8.19 2.42t-4.41 3.43-1.33 4.27q0 4.55 2.7 6.51 2.69 1.96 7.03 1.96 5.32 0 9.21-1.93 3.88-1.92 7.59-5.84m-36.54-37.73-3.08-5.53q12.39-11.34 29.82-11.34 6.3 0 11.27 2.06 4.97 2.07 8.4 5.74 3.43 3.68 5.22 8.79 1.78 5.11 1.78 11.2v45.36h-7.84q-2.45 0-3.78-.74-1.33-.73-2.1-2.97l-1.54-5.18q-2.73 2.45-5.32 4.3-2.59 1.86-5.39 3.12t-5.98 1.93q-3.19.66-7.04.66-4.55 0-8.4-1.23-3.85-1.22-6.65-3.67t-4.34-6.09-1.54-8.47q0-2.73.91-5.43.91-2.69 2.98-5.14 2.06-2.45 5.35-4.62t8.09-3.78q4.79-1.61 11.16-2.63 6.37-1.01 14.56-1.22v-4.2q0-7.21-3.08-10.68-3.08-3.46-8.89-3.46-4.2 0-6.96.98-2.77.98-4.87 2.2-2.1 1.23-3.81 2.21-1.72.98-3.82.98-1.82 0-3.08-.95-1.26-.94-2.03-2.2m114.74 35v-32.2q-2.94-3.57-6.41-5.04-3.46-1.47-7.46-1.47-3.91 0-7.06 1.47-3.16 1.47-5.39 4.44-2.25 2.98-3.44 7.56-1.19 4.59-1.19 10.82 0 6.3 1.02 10.67 1.01 4.38 2.9 7.14 1.89 2.77 4.63 3.99 2.72 1.23 6.09 1.23 5.38 0 9.16-2.24t7.15-6.37m0-82.74h17.29v104.02h-10.57q-3.43 0-4.34-3.15l-1.47-6.93q-4.34 4.97-9.98 8.05t-13.13 3.08q-5.87 0-10.78-2.45-4.9-2.45-8.43-7.11-3.54-4.65-5.46-11.51-1.93-6.86-1.93-15.68 0-7.98 2.17-14.84t6.23-11.9 9.73-7.88q5.67-2.83 12.74-2.83 6.03 0 10.29 1.89 4.27 1.89 7.64 5.11zm72.3 85.47v-12.11q-7.48.35-12.6 1.29-5.1.95-8.19 2.42-3.07 1.47-4.41 3.43-1.32 1.96-1.32 4.27 0 4.55 2.69 6.51t7.03 1.96q5.32 0 9.21-1.93 3.89-1.92 7.59-5.84m-36.54-37.73-3.08-5.53q12.39-11.34 29.82-11.34 6.3 0 11.28 2.06 4.96 2.07 8.39 5.74 3.43 3.68 5.22 8.79 1.78 5.11 1.78 11.2v45.36h-7.83q-2.46 0-3.79-.74-1.33-.73-2.1-2.97l-1.54-5.18q-2.72 2.45-5.31 4.3-2.6 1.86-5.4 3.12-2.79 1.26-5.98 1.93-3.18.66-7.03.66-4.56 0-8.4-1.23-3.86-1.22-6.66-3.67t-4.34-6.09-1.54-8.47q0-2.73.91-5.43.91-2.69 2.98-5.14 2.06-2.45 5.35-4.62 3.3-2.17 8.09-3.78 4.8-1.61 11.16-2.63 6.37-1.01 14.56-1.22v-4.2q0-7.21-3.08-10.68-3.07-3.46-8.88-3.46-4.21 0-6.97.98-2.77.98-4.87 2.2-2.09 1.23-3.81 2.21t-3.82.98q-1.82 0-3.08-.95-1.25-.94-2.03-2.2"/></svg>