<svg xmlns="http://www.w3.org/2000/svg" width="200" height="80" viewBox="0 0 200 80"><rect width="100%" height="100%" fill="#f5f5f5"/><path fill="#000000" d="M45.56 49.185h4.76q1.31 0 2.2-.31.9-.32 1.43-.84.53-.53.77-1.23t.24-1.48q0-.83-.27-1.48-.26-.66-.82-1.12-.56-.47-1.44-.71-.89-.25-2.13-.25h-4.74zm4.01-17.99h-4.01v7.32h3.74q2.42 0 3.65-.88 1.24-.87 1.24-2.78 0-1.98-1.12-2.82t-3.5-.84m-8.72-3.64h8.72q2.48 0 4.25.48 1.77.47 2.9 1.34 1.12.88 1.65 2.12.52 1.24.52 2.8 0 .89-.26 1.71-.26.81-.81 1.52t-1.4 1.29q-.85.57-2.02.98 5.21 1.17 5.21 5.63 0 1.61-.61 2.98-.61 1.36-1.79 2.35-1.17.99-2.88 1.55-1.72.56-3.92.56h-9.56zm26.18 8.44.26 2.03q.84-1.61 2-2.53 1.15-.92 2.73-.92 1.24 0 1.99.54l-.28 3.24q-.08.32-.25.45t-.45.13q-.26 0-.78-.09-.51-.09-1-.09-.72 0-1.28.21t-1.01.61q-.44.39-.78.95t-.64 1.28v11.06h-4.32v-17.96h2.53q.67 0 .93.24t.35.85m18.73 12.23v-3.03q-1.88.09-3.15.33-1.28.23-2.05.6t-1.1.86q-.34.49-.34 1.07 0 1.13.68 1.62.67.49 1.76.49 1.33 0 2.3-.48t1.9-1.46m-9.14-9.43-.77-1.38q3.1-2.84 7.46-2.84 1.57 0 2.81.52 1.25.51 2.1 1.43.86.92 1.31 2.2.44 1.28.44 2.8v11.34h-1.96q-.61 0-.94-.18-.33-.19-.53-.75l-.38-1.29q-.68.61-1.33 1.07-.65.47-1.35.78-.7.32-1.5.48-.79.17-1.75.17-1.14 0-2.1-.31-.97-.3-1.67-.92-.7-.61-1.08-1.52-.39-.91-.39-2.12 0-.68.23-1.35.23-.68.74-1.29.52-.61 1.34-1.15.83-.55 2.02-.95 1.2-.4 2.8-.65 1.59-.26 3.64-.31v-1.05q0-1.8-.77-2.67t-2.23-.87q-1.05 0-1.74.25-.69.24-1.21.55-.53.31-.96.55-.43.25-.95.25-.46 0-.77-.24-.32-.24-.51-.55m21.16-3.1.3 1.42q.54-.54 1.14-1.01.61-.46 1.28-.78.67-.33 1.44-.51.77-.19 1.68-.19 1.47 0 2.61.5t1.9 1.4 1.15 2.16q.4 1.25.4 2.75v11.43h-4.32v-11.43q0-1.64-.76-2.54-.75-.91-2.29-.91-1.12 0-2.1.51t-1.85 1.38v12.99h-4.33v-17.96h2.65q.84 0 1.1.79m27.26 11.85v-8.05q-.73-.89-1.6-1.26-.86-.37-1.86-.37-.98 0-1.77.37t-1.35 1.11-.85 1.89q-.3 1.15-.3 2.7 0 1.58.25 2.67.26 1.1.73 1.79t1.15 1q.69.3 1.53.3 1.34 0 2.29-.56.94-.56 1.78-1.59m0-20.69h4.33v26.01h-2.65q-.85 0-1.08-.79l-.37-1.73q-1.08 1.24-2.49 2.01t-3.28.77q-1.47 0-2.7-.61-1.22-.61-2.11-1.78-.88-1.16-1.36-2.88-.48-1.71-.48-3.92 0-1.99.54-3.71.54-1.71 1.56-2.97 1.01-1.26 2.43-1.97t3.18-.71q1.51 0 2.58.47 1.06.48 1.9 1.28zm31.61.7-7.51 9.19-.87 1.09q.73-.37 1.58-.57t1.83-.2q1.43 0 2.79.47t2.39 1.43q1.03.95 1.66 2.37.63 1.41.63 3.3 0 1.77-.65 3.32-.64 1.55-1.82 2.7-1.17 1.16-2.82 1.82-1.66.67-3.65.67-2.03 0-3.64-.65t-2.75-1.81-1.74-2.8-.6-3.63q0-1.79.72-3.67.73-1.88 2.25-3.91l6.04-8.1q.31-.42.92-.72.6-.3 1.39-.3zm-6.53 22.05q1.03 0 1.9-.35t1.49-.98.97-1.47q.35-.85.35-1.85 0-1.09-.33-1.95-.34-.87-.95-1.47-.61-.61-1.47-.92-.86-.32-1.89-.32t-1.87.35-1.44.98q-.59.62-.92 1.47-.34.84-.34 1.82 0 1.05.29 1.92t.86 1.48 1.41.95 1.94.34"/></svg>