<svg xmlns="http://www.w3.org/2000/svg" width="600" height="800" viewBox="0 0 600 800"><rect width="100%" height="100%" fill="#f5f5f5"/><path fill="#000000" d="M153.835 394.515h19.44v23.69q-4.45 3.28-9.49 4.8-5.05 1.52-10.8 1.52-7.17 0-12.98-2.23t-9.92-6.2-6.34-9.47q-2.23-5.51-2.23-12.03 0-6.6 2.15-12.11t6.1-9.48q3.94-3.97 9.57-6.15 5.63-2.19 12.64-2.19 3.56 0 6.66.57 3.1.56 5.75 1.56 2.66.99 4.84 2.4 2.19 1.42 4.01 3.12l-3.12 4.94q-.73 1.18-1.9 1.44-1.17.27-2.55-.59-1.34-.76-2.67-1.53-1.34-.77-2.98-1.34t-3.69-.93q-2.04-.37-4.72-.37-4.33 0-7.83 1.46-3.51 1.46-5.98 4.17-2.47 2.72-3.8 6.52-1.34 3.81-1.34 8.51 0 5.02 1.44 8.97t4.05 6.68q2.61 2.74 6.3 4.17 3.68 1.44 8.22 1.44 3.24 0 5.79-.69t4.98-1.86v-10.61h-7.37q-1.05 0-1.64-.59t-.59-1.44zm37.67.08q0 4.82 1.29 8.65 1.3 3.82 3.71 6.48 2.41 2.65 5.83 4.07 3.42 1.41 7.72 1.41 4.29 0 7.71-1.41 3.42-1.42 5.81-4.07 2.39-2.66 3.69-6.48 1.29-3.83 1.29-8.65t-1.29-8.65q-1.3-3.83-3.69-6.5t-5.81-4.09-7.71-1.42q-4.3 0-7.72 1.42t-5.83 4.09-3.71 6.5q-1.29 3.83-1.29 8.65m36.37 24.54 14.86 16.2h-8.99q-1.95 0-3.5-.52-1.56-.53-2.86-1.95l-8.59-9.48q-2.06.57-4.23.85-2.16.29-4.51.29-6.65 0-12.11-2.25-5.47-2.25-9.38-6.26t-6.05-9.49q-2.15-5.49-2.15-11.93t2.15-11.93q2.14-5.49 6.05-9.5t9.38-6.25q5.46-2.25 12.11-2.25 4.45 0 8.38 1.03t7.21 2.92q3.28 1.88 5.89 4.57 2.61 2.7 4.44 6.02 1.82 3.32 2.77 7.21t.95 8.18q0 3.93-.81 7.51-.81 3.59-2.33 6.7-1.52 3.12-3.7 5.73-2.19 2.62-4.98 4.6m81.28-9.07q.89 0 1.58.69l4.29 4.66q-3.56 4.41-8.77 6.76-5.2 2.35-12.49 2.35-6.52 0-11.72-2.23-5.21-2.23-8.89-6.2-3.69-3.97-5.65-9.47-1.97-5.51-1.97-12.03 0-6.6 2.11-12.09 2.1-5.49 5.93-9.46t9.13-6.17q5.31-2.21 11.75-2.21 6.4 0 11.36 2.1 4.96 2.11 8.44 5.51l-3.64 5.07q-.33.48-.83.85-.51.36-1.4.36-.61 0-1.26-.34-.64-.35-1.41-.85-.77-.51-1.78-1.12-1.02-.61-2.35-1.11-1.34-.51-3.1-.85-1.76-.35-4.07-.35-3.93 0-7.19 1.4t-5.61 4.05-3.65 6.48q-1.29 3.83-1.29 8.73 0 4.94 1.4 8.79 1.39 3.84 3.78 6.48 2.39 2.63 5.63 4.03 3.24 1.39 6.97 1.39 2.23 0 4.03-.24t3.32-.77 2.87-1.36q1.36-.83 2.7-2.04.4-.37.85-.59.44-.22.93-.22m30.17-28.39q4.62 0 8.41 1.5 3.78 1.5 6.48 4.25 2.69 2.75 4.15 6.72t1.46 8.87q0 4.94-1.46 8.91t-4.15 6.77q-2.7 2.79-6.48 4.29-3.79 1.5-8.41 1.5-4.66 0-8.46-1.5-3.81-1.5-6.5-4.29-2.7-2.8-4.17-6.77-1.48-3.97-1.48-8.91 0-4.9 1.48-8.87 1.47-3.97 4.17-6.72 2.69-2.75 6.5-4.25 3.8-1.5 8.46-1.5m0 35.11q5.19 0 7.68-3.48t2.49-10.21q0-6.72-2.49-10.24-2.49-3.53-7.68-3.53-5.26 0-7.79 3.55-2.54 3.54-2.54 10.22 0 6.69 2.54 10.19 2.53 3.5 7.79 3.5m57.71-34.46h7.9l-16.48 41.55h-9.07l-16.49-41.55h8.27q1.13 0 1.88.52.75.53.99 1.34l8.02 22.19q.65 1.95 1.13 3.81.49 1.86.85 3.73.41-1.87.9-3.73.48-1.86 1.17-3.81l8.18-22.19q.28-.81 1.01-1.34.73-.52 1.74-.52m21.11 15.99h18.87q0-1.94-.55-3.66t-1.64-3.02q-1.09-1.29-2.77-2.04t-3.91-.75q-4.33 0-6.83 2.47-2.49 2.47-3.17 7m25.51 6.04h-25.72q.25 3.2 1.14 5.53t2.35 3.84q1.45 1.52 3.46 2.27 2 .75 4.43.75t4.2-.57q1.76-.56 3.07-1.25 1.32-.69 2.31-1.26.99-.56 1.93-.56 1.25 0 1.86.93l2.87 3.64q-1.66 1.95-3.72 3.26-2.07 1.32-4.32 2.11-2.24.79-4.57 1.11-2.33.33-4.52.33-4.33 0-8.06-1.44-3.72-1.44-6.48-4.25-2.75-2.82-4.33-6.97t-1.58-9.62q0-4.25 1.38-8 1.37-3.74 3.95-6.52 2.57-2.77 6.27-4.39 3.71-1.62 8.37-1.62 3.93 0 7.25 1.25 3.32 1.26 5.71 3.67t3.74 5.91q1.36 3.51 1.36 8 0 2.27-.49 3.06-.48.79-1.86.79m18.67-19.52.61 4.7q1.94-3.73 4.62-5.86 2.67-2.12 6.31-2.12 2.88 0 4.62 1.25l-.65 7.5q-.2.72-.58 1.03-.39.3-1.04.3-.61 0-1.8-.2t-2.33-.2q-1.66 0-2.96.48-1.29.49-2.32 1.4-1.04.91-1.83 2.21-.79 1.29-1.47 2.95v25.6h-10.01v-41.55h5.87q1.54 0 2.15.54.61.55.81 1.97"/></svg>