<svg xmlns="http://www.w3.org/2000/svg" width="800" height="1200" viewBox="0 0 800 1200"><rect width="100%" height="100%" fill="#f5f5f5"/><path fill="#000000" d="M249.88 589.655q0 10.25-3.42 18.83t-9.61 14.77-14.9 9.61-19.35 3.42h-35.54v-93.27h35.54q10.64 0 19.35 3.45t14.9 9.61 9.61 14.74 3.42 18.84m-17.8 0q0-7.68-2.03-13.77-2.04-6.1-5.87-10.32-3.84-4.23-9.29-6.49-5.45-2.25-12.29-2.25h-18.12v65.66h18.12q6.84 0 12.29-2.26t9.29-6.48q3.83-4.23 5.87-10.32 2.03-6.1 2.03-13.77m31.09-19.55h15.99v66.18h-15.99zm18.18-19.28q0 2.06-.83 3.87-.84 1.8-2.23 3.16-1.39 1.35-3.26 2.16-1.87.8-4 .8-2.06 0-3.9-.8-1.84-.81-3.19-2.16-1.35-1.36-2.16-3.16-.81-1.81-.81-3.87 0-2.13.81-4t2.16-3.23q1.35-1.35 3.19-2.16 1.84-.8 3.9-.8 2.13 0 4 .8 1.87.81 3.26 2.16 1.39 1.36 2.23 3.23.83 1.87.83 4m38.25 50.76q2.97 0 5.16-.81 2.2-.8 3.65-2.22t2.19-3.42.74-4.39q0-4.9-2.93-7.77-2.94-2.87-8.81-2.87t-8.8 2.87q-2.94 2.87-2.94 7.77 0 2.32.75 4.32.74 2 2.19 3.46 1.45 1.45 3.68 2.25 2.22.81 5.12.81m18 37.67q0-1.94-1.16-3.16-1.16-1.23-3.16-1.91-2-.67-4.68-1-2.68-.32-5.67-.48-3-.16-6.2-.29-3.19-.13-6.22-.52-2.65 1.49-4.29 3.49-1.65 2-1.65 4.64 0 1.74.88 3.26.87 1.51 2.77 2.61t4.93 1.71 7.42.61q4.45 0 7.68-.67 3.22-.68 5.32-1.88 2.09-1.19 3.06-2.83.97-1.65.97-3.58m-3.16-66.89h19.03v5.93q0 2.84-3.42 3.49l-5.94 1.09q1.36 3.42 1.36 7.49 0 4.9-1.97 8.86-1.97 3.97-5.45 6.74-3.48 2.78-8.22 4.29-4.74 1.52-10.23 1.52-1.93 0-3.74-.19-1.8-.2-3.55-.52-3.09 1.87-3.09 4.19 0 2 1.84 2.94 1.84.93 4.87 1.32t6.9.48q3.87.1 7.93.42 4.07.33 7.94 1.13 3.87.81 6.9 2.55t4.87 4.74q1.83 3 1.83 7.71 0 4.38-2.16 8.51t-6.25 7.36q-4.1 3.22-10.06 5.19-5.97 1.96-13.58 1.96-7.48 0-13.03-1.45t-9.22-3.87q-3.68-2.42-5.49-5.58-1.8-3.16-1.8-6.58 0-4.64 2.8-7.77 2.81-3.13 7.71-5-2.64-1.35-4.19-3.61t-1.55-5.93q0-1.49.55-3.07t1.61-3.12q1.07-1.55 2.68-2.94t3.8-2.48q-5.03-2.71-7.9-7.23-2.87-4.51-2.87-10.57 0-4.91 1.97-8.87 1.97-3.97 5.48-6.78 3.52-2.8 8.32-4.28 4.81-1.49 10.48-1.49 4.26 0 8 .87t6.84 2.55m29.6-2.26h16v66.18h-16zm18.19-19.28q0 2.06-.84 3.87-.83 1.8-2.22 3.16-1.39 1.35-3.26 2.16-1.87.8-4 .8-2.06 0-3.9-.8-1.84-.81-3.19-2.16-1.36-1.36-2.16-3.16-.81-1.81-.81-3.87 0-2.13.81-4 .8-1.87 2.16-3.23 1.35-1.35 3.19-2.16 1.84-.8 3.9-.8 2.13 0 4 .8 1.87.81 3.26 2.16 1.39 1.36 2.22 3.23.84 1.87.84 4m36.12 86.49q-8.64 0-13.25-4.87t-4.61-13.45v-36.95h-6.78q-1.29 0-2.19-.84t-.9-2.52v-6.32l10.64-1.74 3.35-18.06q.33-1.29 1.23-2t2.32-.71h8.26v20.83h17.67v11.36h-17.67v35.86q0 3.09 1.51 4.84 1.52 1.74 4.16 1.74 1.49 0 2.49-.36 1-.35 1.74-.74t1.32-.74q.58-.36 1.16-.36.71 0 1.16.36.45.35.97 1.06l4.77 7.74q-3.48 2.9-7.99 4.39-4.52 1.48-9.36 1.48m60.89-18.12v-11.16q-6.9.32-11.61 1.19t-7.55 2.23q-2.83 1.35-4.06 3.16-1.22 1.8-1.22 3.93 0 4.2 2.48 6 2.48 1.81 6.48 1.81 4.9 0 8.48-1.78 3.58-1.77 7-5.38m-33.67-34.77-2.84-5.09q11.42-10.45 27.48-10.45 5.81 0 10.39 1.9 4.57 1.9 7.74 5.29 3.16 3.39 4.8 8.09 1.65 4.71 1.65 10.32v41.8h-7.23q-2.26 0-3.48-.68-1.23-.67-1.94-2.74l-1.42-4.77q-2.51 2.26-4.9 3.97-2.38 1.7-4.96 2.87-2.58 1.16-5.52 1.77-2.93.61-6.48.61-4.19 0-7.74-1.13t-6.13-3.38q-2.58-2.26-4-5.61-1.42-3.36-1.42-7.81 0-2.51.84-5 .84-2.48 2.74-4.74 1.91-2.26 4.94-4.26t7.45-3.48 10.28-2.42q5.87-.93 13.42-1.13v-3.87q0-6.64-2.84-9.83-2.84-3.2-8.19-3.2-3.87 0-6.42.91-2.54.9-4.48 2.03-1.93 1.13-3.51 2.03t-3.52.9q-1.68 0-2.84-.87t-1.87-2.03m64.37-43.99h15.93v95.85h-15.93zm84.82 17.03-3.29 19.42q3.1-.65 5.93-.94 2.84-.29 5.49-.29 7.35 0 12.96 2.19 5.61 2.2 9.42 6.07 3.8 3.87 5.74 9.06 1.93 5.19 1.93 11.19 0 7.42-2.61 13.54-2.61 6.13-7.25 10.49-4.65 4.35-11 6.74-6.35 2.38-13.84 2.38-4.38 0-8.32-.9-3.93-.9-7.38-2.42t-6.39-3.48q-2.93-1.97-5.25-4.16l4.9-6.78q1.55-2.19 4.06-2.19 1.61 0 3.29 1.03 1.68 1.04 3.84 2.26 2.16 1.23 5.09 2.26 2.94 1.03 7.07 1.03 4.38 0 7.74-1.42 3.35-1.42 5.58-3.97 2.22-2.54 3.35-6.06 1.13-3.51 1.13-7.64 0-7.61-4.42-11.9t-13.06-4.29q-6.64 0-13.61 2.45l-9.93-2.84 7.74-45.28h46.05v6.78q0 3.41-2.13 5.54t-7.22 2.13z"/></svg>