<svg xmlns="http://www.w3.org/2000/svg" width="600" height="800" viewBox="0 0 600 800"><rect width="100%" height="100%" fill="#f5f5f5"/><path fill="#000000" d="M156.655 395.545q0 4.37-1.46 8.03-1.46 3.65-4.1 6.3-2.64 2.63-6.35 4.09t-8.25 1.46h-15.15v-39.77h15.15q4.54 0 8.25 1.48 3.71 1.47 6.35 4.09 2.64 2.63 4.1 6.29t1.46 8.03m-7.59 0q0-3.28-.87-5.87-.86-2.6-2.5-4.4-1.64-1.81-3.96-2.77t-5.24-.96h-7.73v28h7.73q2.92 0 5.24-.97 2.32-.96 3.96-2.76t2.5-4.4q.87-2.6.87-5.87m13.25-8.33h6.82v28.21h-6.82zm7.76-8.23q0 .88-.36 1.65t-.95 1.35-1.39.92q-.79.35-1.7.35-.88 0-1.66-.35-.79-.34-1.37-.92-.57-.58-.92-1.35-.34-.77-.34-1.65 0-.9.34-1.7.35-.8.92-1.38.58-.57 1.37-.92.78-.34 1.66-.34.91 0 1.7.34.8.35 1.39.92.59.58.95 1.38t.36 1.7m18.48 7.78q3.13 0 5.71 1.02 2.57 1.02 4.4 2.89 1.82 1.87 2.81 4.57.99 2.69.99 6.02 0 3.35-.99 6.05-.99 2.69-2.81 4.59-1.83 1.9-4.4 2.92-2.58 1.01-5.71 1.01-3.16 0-5.75-1.01-2.58-1.02-4.41-2.92t-2.83-4.59q-1.01-2.7-1.01-6.05 0-3.33 1.01-6.02 1-2.7 2.83-4.57t4.41-2.89q2.59-1.02 5.75-1.02m0 23.85q3.52 0 5.21-2.37 1.69-2.36 1.69-6.93 0-4.56-1.69-6.96-1.69-2.39-5.21-2.39-3.58 0-5.29 2.41-1.72 2.41-1.72 6.94 0 4.54 1.72 6.92 1.71 2.38 5.29 2.38m25.11-21.7.41 3.19q1.32-2.53 3.13-3.97 1.82-1.45 4.29-1.45 1.96 0 3.14.85l-.44 5.09q-.14.5-.4.7-.26.21-.7.21-.41 0-1.22-.14-.82-.13-1.59-.13-1.12 0-2 .32-.88.34-1.58.95-.71.62-1.24 1.5-.54.88-1.01 2.01v17.38h-6.79v-28.21h3.99q1.04 0 1.46.37.41.37.55 1.33m56.26 17.13q.61 0 1.07.47l2.92 3.16q-2.42 3-5.95 4.59-3.54 1.6-8.49 1.6-4.43 0-7.96-1.51t-6.04-4.21q-2.5-2.69-3.83-6.43-1.34-3.75-1.34-8.17 0-4.48 1.43-8.21t4.03-6.42q2.6-2.7 6.2-4.2 3.61-1.49 7.98-1.49 4.34 0 7.71 1.43t5.74 3.73l-2.48 3.44q-.22.33-.56.58-.35.25-.95.25-.41 0-.85-.24-.44-.23-.97-.57-.52-.35-1.21-.76-.68-.41-1.59-.76-.91-.34-2.1-.57-1.2-.24-2.77-.24-2.67 0-4.88.95t-3.81 2.75q-1.59 1.8-2.47 4.4t-.88 5.93q0 3.35.95 5.96.94 2.62 2.57 4.4 1.62 1.79 3.82 2.74t4.73.95q1.51 0 2.74-.17 1.22-.16 2.25-.52t1.95-.92 1.83-1.39q.28-.24.58-.4.3-.15.63-.15m22.91 2.09v-4.75q-2.94.13-4.95.5t-3.22.95-1.73 1.35-.52 1.68q0 1.78 1.06 2.56 1.05.76 2.76.76 2.09 0 3.62-.75 1.52-.76 2.98-2.3m-14.36-14.82-1.21-2.17q4.87-4.46 11.72-4.46 2.47 0 4.43.81 1.95.82 3.3 2.26 1.34 1.44 2.05 3.45.7 2.01.7 4.4v17.82h-3.08q-.97 0-1.49-.29t-.82-1.17l-.61-2.03q-1.07.96-2.09 1.69t-2.12 1.22q-1.1.5-2.35.76t-2.76.26q-1.79 0-3.3-.48t-2.61-1.45q-1.1-.96-1.71-2.39-.6-1.43-.6-3.33 0-1.07.35-2.13.36-1.05 1.17-2.02.81-.96 2.11-1.81 1.29-.86 3.17-1.49 1.89-.63 4.39-1.03t5.72-.48v-1.65q0-2.83-1.21-4.19-1.21-1.37-3.49-1.37-1.65 0-2.74.39-1.09.38-1.91.87-.83.48-1.5.86-.67.39-1.5.39-.71 0-1.21-.37-.49-.37-.8-.87m34.16 22.11h-6.79v-28.21h4.15q1.32 0 1.73 1.23l.44 2.09q.74-.82 1.56-1.51.81-.69 1.73-1.18.92-.5 1.98-.79t2.32-.29q2.67 0 4.39 1.45 1.72 1.44 2.57 3.83.66-1.4 1.65-2.4.99-1.01 2.17-1.64t2.52-.93q1.33-.31 2.68-.31 2.34 0 4.15.72 1.82.71 3.05 2.09 1.24 1.37 1.89 3.35.64 1.98.64 4.54v17.96h-6.79v-17.96q0-2.69-1.18-4.05-1.18-1.37-3.47-1.37-1.04 0-1.93.36-.9.36-1.57 1.03-.68.68-1.06 1.69-.39 1.02-.39 2.34v17.96h-6.82v-17.96q0-2.83-1.14-4.12-1.14-1.3-3.34-1.3-1.48 0-2.76.73t-2.38 2zm46.06-19.96v12.64q1.16 1.41 2.52 1.99 1.36.57 2.95.57 1.54 0 2.78-.57 1.24-.58 2.11-1.76.86-1.19 1.33-2.99t.47-4.25q0-2.47-.4-4.19t-1.14-2.79q-.75-1.08-1.8-1.57-1.06-.5-2.41-.5-2.12 0-3.6.9-1.49.89-2.81 2.52m-.91-7.02.55 2.62q1.74-1.96 3.94-3.17t5.17-1.21q2.31 0 4.22.97 1.91.96 3.3 2.79 1.39 1.82 2.14 4.51.76 2.68.76 6.14 0 3.16-.85 5.86-.86 2.69-2.44 4.68-1.58 1.98-3.82 3.09t-5.02 1.11q-2.36 0-4.04-.73-1.68-.72-3-2.02v11.55h-6.79v-37.42h4.15q1.32 0 1.73 1.23m40.26 19.69v-4.75q-2.94.13-4.95.5-2 .37-3.21.95t-1.74 1.35q-.52.77-.52 1.68 0 1.78 1.06 2.56 1.06.76 2.76.76 2.09 0 3.62-.75 1.53-.76 2.98-2.3m-14.35-14.82-1.21-2.17q4.87-4.46 11.71-4.46 2.48 0 4.43.81 1.95.82 3.3 2.26t2.05 3.45.7 4.4v17.82h-3.08q-.96 0-1.48-.29-.53-.29-.83-1.17l-.6-2.03q-1.08.96-2.09 1.69-1.02.73-2.12 1.22-1.1.5-2.35.76t-2.77.26q-1.78 0-3.3-.48-1.51-.48-2.61-1.45-1.1-.96-1.7-2.39-.61-1.43-.61-3.33 0-1.07.36-2.13.36-1.05 1.17-2.02.81-.96 2.1-1.81 1.29-.86 3.18-1.49 1.88-.63 4.38-1.03 2.51-.4 5.72-.48v-1.65q0-2.83-1.21-4.19-1.21-1.37-3.49-1.37-1.65 0-2.73.39-1.09.38-1.92.87-.82.48-1.49.86-.68.39-1.5.39-.72 0-1.21-.37-.5-.37-.8-.87m27.58-6.1h6.82v28.21h-6.82zm7.76-8.23q0 .88-.36 1.65t-.95 1.35-1.39.92q-.8.35-1.7.35-.88 0-1.67-.35-.78-.34-1.36-.92t-.92-1.35-.34-1.65q0-.9.34-1.7t.92-1.38q.58-.57 1.36-.92.79-.34 1.67-.34.9 0 1.7.34.8.35 1.39.92.59.58.95 1.38t.36 1.7m16.3 21.65q1.27 0 2.2-.35.94-.34 1.56-.95.62-.6.93-1.46.32-.85.32-1.86 0-2.09-1.25-3.32-1.25-1.22-3.76-1.22-2.5 0-3.75 1.22-1.25 1.23-1.25 3.32 0 .98.32 1.84.31.85.93 1.47t1.57.96q.95.35 2.18.35m7.68 16.05q0-.82-.5-1.34-.49-.52-1.35-.81-.85-.29-1.99-.43t-2.42-.21q-1.28-.06-2.64-.12t-2.65-.22q-1.13.63-1.83 1.48-.7.86-.7 1.98 0 .75.37 1.39.37.65 1.18 1.12t2.1.73q1.3.26 3.17.26 1.89 0 3.27-.29 1.37-.29 2.27-.8.89-.51 1.3-1.21.42-.7.42-1.53m-1.35-28.51h8.11v2.53q0 1.21-1.46 1.48l-2.53.47q.58 1.46.58 3.19 0 2.09-.84 3.78t-2.32 2.87q-1.49 1.19-3.51 1.83-2.02.65-4.36.65-.82 0-1.59-.08-.77-.09-1.51-.22-1.32.79-1.32 1.79 0 .85.78 1.25.78.39 2.08.56 1.29.16 2.94.21 1.65.04 3.38.18 1.73.13 3.38.48 1.65.34 2.95 1.08 1.29.74 2.07 2.02.79 1.28.79 3.29 0 1.87-.92 3.63-.93 1.76-2.67 3.14-1.75 1.37-4.29 2.21-2.55.84-5.79.84-3.19 0-5.56-.62-2.36-.62-3.93-1.65t-2.34-2.38-.77-2.8q0-1.99 1.2-3.32t3.29-2.13q-1.13-.58-1.79-1.54t-.66-2.53q0-.63.23-1.31.24-.67.69-1.33t1.14-1.25 1.62-1.06q-2.14-1.15-3.36-3.08-1.23-1.93-1.23-4.51 0-2.09.84-3.78t2.34-2.89 3.55-1.83q2.04-.63 4.46-.63 1.82 0 3.41.37 1.6.37 2.92 1.09m18.29.27.46 2.23q.86-.85 1.81-1.58.94-.73 2-1.24t2.27-.8 2.64-.29q2.31 0 4.1.79 1.79.78 2.98 2.2 1.2 1.42 1.82 3.38.62 1.97.62 4.33v17.96h-6.8v-17.96q0-2.58-1.18-4t-3.6-1.42q-1.76 0-3.3.8t-2.92 2.17v20.41h-6.79v-28.21h4.15q1.32 0 1.74 1.23"/></svg>