<svg xmlns="http://www.w3.org/2000/svg" width="800" height="1000" viewBox="0 0 800 1000"><rect width="100%" height="100%" fill="#f5f5f5"/><path fill="#000000" d="M204.275 515.565q.87 0 1.54.67l4.19 4.54q-3.48 4.31-8.55 6.6-5.08 2.29-12.19 2.29-6.36 0-11.44-2.17-5.07-2.17-8.67-6.04-3.59-3.88-5.51-9.25-1.91-5.37-1.91-11.73 0-6.44 2.05-11.79 2.06-5.35 5.79-9.22t8.91-6.03q5.17-2.15 11.45-2.15 6.24 0 11.08 2.05 4.84 2.06 8.24 5.38l-3.56 4.93q-.31.48-.81.83-.49.36-1.36.36-.59 0-1.23-.34-.63-.33-1.38-.83-.75-.49-1.74-1.08-.98-.59-2.29-1.09-1.3-.49-3.02-.83-1.72-.33-3.97-.33-3.83 0-7.01 1.36t-5.47 3.95-3.56 6.32q-1.26 3.73-1.26 8.51 0 4.82 1.36 8.57 1.37 3.76 3.7 6.32 2.33 2.57 5.49 3.93 3.16 1.37 6.79 1.37 2.17 0 3.93-.24t3.24-.75q1.48-.52 2.8-1.32 1.33-.81 2.63-2 .4-.36.83-.57.44-.22.91-.22m29.43-27.69q4.5 0 8.19 1.46 3.7 1.46 6.32 4.15 2.63 2.69 4.05 6.56t1.42 8.65q0 4.82-1.42 8.69t-4.05 6.59q-2.62 2.73-6.32 4.19-3.69 1.46-8.19 1.46-4.55 0-8.26-1.46t-6.34-4.19q-2.62-2.72-4.07-6.59-1.44-3.87-1.44-8.69 0-4.78 1.44-8.65 1.45-3.87 4.07-6.56 2.63-2.69 6.34-4.15t8.26-1.46m0 34.25q5.05 0 7.48-3.4t2.43-9.95q0-6.56-2.43-10-2.43-3.43-7.48-3.43-5.14 0-7.61 3.45-2.47 3.46-2.47 9.98 0 6.51 2.47 9.93t7.61 3.42m37.21 6.91h-9.76v-40.53h5.96q1.9 0 2.49 1.78l.63 3q1.07-1.18 2.24-2.17 1.16-.99 2.48-1.7 1.33-.71 2.85-1.12 1.52-.42 3.34-.42 3.83 0 6.3 2.07 2.47 2.08 3.69 5.51.95-2.01 2.37-3.45t3.12-2.35 3.61-1.34q1.92-.44 3.86-.44 3.35 0 5.96 1.03t4.39 3q1.77 1.97 2.7 4.82.93 2.84.93 6.52v25.79h-9.76v-25.79q0-3.87-1.7-5.83-1.69-1.96-4.97-1.96-1.5 0-2.79.52-1.28.51-2.25 1.48t-1.52 2.43-.55 3.36v25.79h-9.8v-25.79q0-4.07-1.64-5.93t-4.8-1.86q-2.13 0-3.97 1.05-1.83 1.05-3.41 2.87zm66.16 0h-9.76v-40.53h5.97q1.89 0 2.49 1.78l.63 3q1.06-1.18 2.23-2.17 1.16-.99 2.49-1.7 1.32-.71 2.84-1.12 1.52-.42 3.34-.42 3.83 0 6.3 2.07 2.47 2.08 3.69 5.51.95-2.01 2.37-3.45t3.12-2.35 3.62-1.34q1.91-.44 3.85-.44 3.36 0 5.96 1.03 2.61 1.03 4.39 3t2.7 4.82q.93 2.84.93 6.52v25.79h-9.75v-25.79q0-3.87-1.7-5.83t-4.98-1.96q-1.5 0-2.79.52-1.28.51-2.25 1.48-.96.97-1.52 2.43-.55 1.46-.55 3.36v25.79h-9.8v-25.79q0-4.07-1.64-5.93-1.63-1.86-4.79-1.86-2.14 0-3.97 1.05-1.84 1.05-3.42 2.87zm64.11-24.92h18.4q0-1.9-.53-3.58t-1.6-2.94q-1.07-1.27-2.7-2-1.64-.73-3.82-.73-4.22 0-6.65 2.41t-3.1 6.84m24.88 5.88h-25.08q.24 3.12 1.11 5.39.86 2.27 2.29 3.76 1.42 1.48 3.37 2.21 1.96.73 4.33.73t4.09-.55q1.72-.56 3-1.23t2.25-1.22q.97-.56 1.88-.56 1.22 0 1.81.91l2.81 3.56q-1.62 1.89-3.64 3.18-2.01 1.28-4.2 2.05t-4.47 1.09q-2.27.31-4.4.31-4.23 0-7.86-1.4t-6.32-4.15q-2.69-2.74-4.23-6.79t-1.54-9.38q0-4.15 1.35-7.8 1.34-3.66 3.85-6.36 2.51-2.71 6.12-4.29t8.16-1.58q3.83 0 7.07 1.23 3.24 1.22 5.57 3.57t3.65 5.77q1.32 3.41 1.32 7.8 0 2.21-.47 2.98t-1.82.77m18.21-19.04.59 4.58q1.9-3.63 4.51-5.7 2.6-2.08 6.16-2.08 2.8 0 4.5 1.23l-.63 7.3q-.2.72-.57 1.01-.38.3-1.01.3-.59 0-1.76-.2-1.16-.2-2.27-.2-1.62 0-2.88.48-1.27.47-2.27 1.36-1.01.89-1.78 2.15-.77 1.27-1.44 2.89v24.96h-9.76v-40.53h5.73q1.5 0 2.09.54.59.53.79 1.91m52.46 2.57-2.57 3.55q-.43.56-.85.87-.41.32-1.2.32-.75 0-1.47-.45-.71-.46-1.69-1.03-.99-.57-2.35-1.03-1.37-.45-3.38-.45-2.57 0-4.5.93-1.94.92-3.22 2.66-1.29 1.74-1.92 4.21t-.63 5.59q0 3.24.69 5.76.69 2.53 1.99 4.25 1.31 1.72 3.16 2.61 1.86.89 4.19.89t3.77-.58q1.45-.57 2.43-1.26.99-.69 1.72-1.26.73-.58 1.64-.58 1.19 0 1.78.91l2.8 3.56q-1.62 1.89-3.51 3.18-1.9 1.28-3.93 2.05-2.04.77-4.19 1.09-2.15.31-4.29.31-3.75 0-7.07-1.4-3.31-1.4-5.8-4.09-2.49-2.68-3.93-6.57-1.44-3.9-1.44-8.87 0-4.47 1.28-8.28t3.77-6.59q2.49-2.79 6.16-4.37 3.68-1.58 8.46-1.58 4.54 0 7.96 1.46 3.41 1.46 6.14 4.19m6.79-5.02h9.8v40.53h-9.8zm11.14-11.81q0 1.27-.51 2.37-.52 1.11-1.37 1.94-.84.83-1.99 1.32t-2.45.49q-1.26 0-2.39-.49-1.12-.49-1.95-1.32t-1.33-1.94q-.49-1.1-.49-2.37 0-1.3.49-2.45.5-1.14 1.33-1.97t1.95-1.32q1.13-.5 2.39-.5 1.3 0 2.45.5 1.15.49 1.99 1.32.85.83 1.37 1.97.51 1.15.51 2.45m30.02 41.87v-6.83q-4.23.2-7.11.73t-4.62 1.36-2.49 1.94q-.75 1.1-.75 2.41 0 2.57 1.52 3.67 1.52 1.11 3.97 1.11 3 0 5.19-1.09 2.2-1.09 4.29-3.3m-20.62-21.29-1.74-3.12q7-6.4 16.83-6.4 3.56 0 6.36 1.17 2.8 1.16 4.74 3.24 1.94 2.07 2.94 4.95 1.01 2.89 1.01 6.32v25.6h-4.42q-1.39 0-2.14-.41-.75-.42-1.18-1.68l-.87-2.93q-1.54 1.39-3 2.43-1.46 1.05-3.04 1.76t-3.38 1.09q-1.8.37-3.97.37-2.57 0-4.74-.69t-3.75-2.07q-1.58-1.39-2.45-3.44t-.87-4.78q0-1.54.51-3.06.52-1.52 1.68-2.9 1.17-1.39 3.02-2.61 1.86-1.22 4.56-2.13 2.71-.91 6.3-1.48 3.6-.58 8.22-.7v-2.37q0-4.06-1.74-6.02t-5.01-1.96q-2.37 0-3.93.56-1.56.55-2.75 1.24-1.18.69-2.15 1.25-.97.55-2.15.55-1.03 0-1.74-.53-.71-.54-1.15-1.25m39.42-26.94h9.76v58.7h-9.76zm64.51 51.39h10.27v7.31h-31.6v-7.31h11.57v-33.3q0-1.97.12-4.06l-8.22 6.87q-.71.55-1.4.69t-1.3.02q-.62-.12-1.09-.42-.47-.29-.71-.65l-3.08-4.22 17.42-14.82h8.02z"/></svg>