<svg xmlns="http://www.w3.org/2000/svg" width="800" height="1200" viewBox="0 0 800 1200"><rect width="100%" height="100%" fill="#f5f5f5"/><path fill="#000000" d="M249.33 589.655q0 10.25-3.42 18.83t-9.61 14.77-14.9 9.61-19.35 3.42h-35.54v-93.27h35.54q10.64 0 19.35 3.45t14.9 9.61 9.61 14.74 3.42 18.84m-17.8 0q0-7.68-2.03-13.77-2.04-6.1-5.87-10.32-3.84-4.23-9.29-6.49-5.45-2.25-12.29-2.25h-18.12v65.66h18.12q6.84 0 12.29-2.26t9.29-6.48q3.83-4.23 5.87-10.32 2.03-6.1 2.03-13.77m31.09-19.55h15.99v66.18h-15.99zm18.18-19.28q0 2.06-.83 3.87-.84 1.8-2.23 3.16-1.39 1.35-3.26 2.16-1.87.8-4 .8-2.06 0-3.9-.8-1.84-.81-3.19-2.16-1.35-1.36-2.16-3.16-.81-1.81-.81-3.87 0-2.13.81-4t2.16-3.23q1.35-1.35 3.19-2.16 1.84-.8 3.9-.8 2.13 0 4 .8 1.87.81 3.26 2.16 1.39 1.36 2.23 3.23.83 1.87.83 4m38.25 50.76q2.97 0 5.16-.81 2.2-.8 3.65-2.22t2.19-3.42.74-4.39q0-4.9-2.93-7.77-2.94-2.87-8.81-2.87t-8.8 2.87q-2.94 2.87-2.94 7.77 0 2.32.75 4.32.74 2 2.19 3.46 1.45 1.45 3.68 2.25 2.22.81 5.12.81m18 37.67q0-1.94-1.16-3.16-1.16-1.23-3.16-1.91-2-.67-4.68-1-2.68-.32-5.67-.48-3-.16-6.2-.29-3.19-.13-6.22-.52-2.65 1.49-4.29 3.49-1.65 2-1.65 4.64 0 1.74.88 3.26.87 1.51 2.77 2.61t4.93 1.71 7.42.61q4.45 0 7.68-.67 3.22-.68 5.32-1.88 2.09-1.19 3.06-2.83.97-1.65.97-3.58m-3.16-66.89h19.03v5.93q0 2.84-3.42 3.49l-5.94 1.09q1.36 3.42 1.36 7.49 0 4.9-1.97 8.86-1.97 3.97-5.45 6.74-3.48 2.78-8.22 4.29-4.74 1.52-10.23 1.52-1.93 0-3.74-.19-1.8-.2-3.55-.52-3.09 1.87-3.09 4.19 0 2 1.84 2.94 1.84.93 4.87 1.32t6.9.48q3.87.1 7.93.42 4.07.33 7.94 1.13 3.87.81 6.9 2.55t4.87 4.74q1.83 3 1.83 7.71 0 4.38-2.16 8.51t-6.25 7.36q-4.1 3.22-10.06 5.19-5.97 1.96-13.58 1.96-7.48 0-13.03-1.45t-9.22-3.87q-3.68-2.42-5.49-5.58-1.8-3.16-1.8-6.58 0-4.64 2.8-7.77 2.81-3.13 7.71-5-2.64-1.35-4.19-3.61t-1.55-5.93q0-1.49.55-3.07t1.61-3.12q1.07-1.55 2.68-2.94t3.8-2.48q-5.03-2.71-7.9-7.23-2.87-4.51-2.87-10.57 0-4.91 1.97-8.87 1.97-3.97 5.48-6.78 3.52-2.8 8.32-4.28 4.81-1.49 10.48-1.49 4.26 0 8 .87t6.84 2.55m29.6-2.26h16v66.18h-16zm18.19-19.28q0 2.06-.84 3.87-.83 1.8-2.22 3.16-1.39 1.35-3.26 2.16-1.87.8-4 .8-2.06 0-3.9-.8-1.84-.81-3.19-2.16-1.36-1.36-2.16-3.16-.81-1.81-.81-3.87 0-2.13.81-4 .8-1.87 2.16-3.23 1.35-1.35 3.19-2.16 1.84-.8 3.9-.8 2.13 0 4 .8 1.87.81 3.26 2.16 1.39 1.36 2.22 3.23.84 1.87.84 4m36.12 86.49q-8.64 0-13.25-4.87t-4.61-13.45v-36.95h-6.78q-1.29 0-2.19-.84t-.9-2.52v-6.32l10.64-1.74 3.35-18.06q.33-1.29 1.23-2t2.32-.71h8.26v20.83h17.67v11.36h-17.67v35.86q0 3.09 1.51 4.84 1.52 1.74 4.16 1.74 1.49 0 2.49-.36 1-.35 1.74-.74t1.32-.74q.58-.36 1.16-.36.71 0 1.16.36.45.35.97 1.06l4.77 7.74q-3.48 2.9-7.99 4.39-4.52 1.48-9.36 1.48m60.89-18.12v-11.16q-6.9.32-11.61 1.19t-7.55 2.23q-2.83 1.35-4.06 3.16-1.22 1.8-1.22 3.93 0 4.2 2.48 6 2.48 1.81 6.48 1.81 4.9 0 8.48-1.78 3.58-1.77 7-5.38m-33.67-34.77-2.84-5.09q11.42-10.45 27.48-10.45 5.81 0 10.39 1.9 4.57 1.9 7.74 5.29 3.16 3.39 4.8 8.09 1.65 4.71 1.65 10.32v41.8h-7.23q-2.26 0-3.48-.68-1.23-.67-1.94-2.74l-1.42-4.77q-2.51 2.26-4.9 3.97-2.38 1.7-4.96 2.87-2.58 1.16-5.52 1.77-2.93.61-6.48.61-4.19 0-7.74-1.13t-6.13-3.38q-2.58-2.26-4-5.61-1.42-3.36-1.42-7.81 0-2.51.84-5 .84-2.48 2.74-4.74 1.91-2.26 4.94-4.26t7.45-3.48 10.28-2.42q5.87-.93 13.42-1.13v-3.87q0-6.64-2.84-9.83-2.84-3.2-8.19-3.2-3.87 0-6.42.91-2.54.9-4.48 2.03-1.93 1.13-3.51 2.03t-3.52.9q-1.68 0-2.84-.87t-1.87-2.03m64.37-43.99h15.93v95.85h-15.93zm70.69 30.06-8.38-1.48q.97-6.71 3.74-11.77 2.77-5.07 6.93-8.45 4.16-3.39 9.55-5.1t11.58-1.71q6.45 0 11.64 1.84t8.87 5.09q3.68 3.26 5.64 7.65 1.97 4.38 1.97 9.48 0 4.45-1 7.84-1 3.38-2.87 5.9-1.87 2.51-4.64 4.25-2.78 1.75-6.26 2.91 8.38 2.64 12.51 8.06t4.13 13.61q0 6.97-2.58 12.32t-6.97 9q-4.38 3.64-10.15 5.51-5.78 1.87-12.23 1.87-7.03 0-12.25-1.61-5.23-1.61-9.1-4.77t-6.58-7.74q-2.7-4.58-4.64-10.58l7.03-2.9q2.77-1.16 5.19-.62 2.42.55 3.52 2.62 1.16 2.25 2.55 4.45 1.38 2.19 3.32 3.9 1.93 1.71 4.55 2.77 2.61 1.07 6.22 1.07 4.06 0 7.09-1.33 3.04-1.32 5.07-3.45t3.03-4.74 1-5.25q0-3.36-.71-6.1t-2.97-4.68q-2.25-1.93-6.48-3.03-4.22-1.09-11.32-1.09v-11.36q5.87-.06 9.74-1.09t6.16-2.87 3.19-4.42q.91-2.58.91-5.68 0-6.58-3.68-9.99-3.68-3.42-9.8-3.42-2.84 0-5.23.8-2.39.81-4.29 2.26t-3.19 3.39q-1.29 1.93-1.94 4.25-1.09 2.97-2.87 3.94-1.77.97-5 .45"/></svg>