<svg xmlns="http://www.w3.org/2000/svg" width="600" height="800" viewBox="0 0 600 800"><rect width="100%" height="100%" fill="#f5f5f5"/><path fill="#000000" d="M165.535 377.955h6.3v44.83h-7.35v-28.95q0-1.74.19-3.75l-13.55 25.45q-.96 1.83-2.95 1.83h-1.17q-1.99 0-2.95-1.83l-13.7-25.55q.09 1.03.15 2.02.07.99.07 1.83v28.95h-7.35v-44.83h6.29q.56 0 .96.03.41.04.73.16.33.12.59.4t.51.75l13.43 24.89q.52.99.97 2.05.45 1.05.89 2.17.43-1.15.89-2.22.47-1.07 1-2.06l13.23-24.83q.25-.47.53-.75t.6-.4q.33-.12.73-.16.41-.03.96-.03m29.14 12.53q3.54 0 6.44 1.14 2.9 1.15 4.96 3.26t3.17 5.15q1.12 3.03 1.12 6.79 0 3.78-1.12 6.82-1.11 3.03-3.17 5.17t-4.96 3.29q-2.9 1.14-6.44 1.14-3.56 0-6.47-1.14-2.92-1.15-4.98-3.29t-3.19-5.17q-1.13-3.04-1.13-6.82 0-3.76 1.13-6.79 1.13-3.04 3.19-5.15t4.98-3.26q2.91-1.14 6.47-1.14m0 26.88q3.97 0 5.88-2.67t1.91-7.81q0-5.15-1.91-7.85-1.91-2.69-5.88-2.69-4.03 0-5.96 2.71-1.94 2.71-1.94 7.83 0 5.11 1.94 7.79 1.93 2.69 5.96 2.69m41.51-4v-14.26q-1.3-1.59-2.83-2.24-1.54-.65-3.3-.65-1.74 0-3.14.65-1.39.65-2.38 1.97t-1.52 3.35-.53 4.79q0 2.79.45 4.73t1.29 3.16q.83 1.22 2.04 1.77 1.21.54 2.7.54 2.39 0 4.06-.99 1.68-.99 3.16-2.82m0-36.65h7.66v46.07h-4.68q-1.52 0-1.92-1.4l-.65-3.06q-1.93 2.2-4.42 3.56-2.5 1.36-5.81 1.36-2.61 0-4.78-1.08-2.17-1.09-3.73-3.15-1.57-2.06-2.42-5.1-.85-3.03-.85-6.94 0-3.53.96-6.57t2.76-5.27q1.79-2.23 4.31-3.49 2.51-1.26 5.64-1.26 2.66 0 4.55.84 1.9.84 3.38 2.27zm21.27 26.51h14.45q0-1.49-.42-2.81-.42-1.31-1.26-2.31-.84-.99-2.12-1.56-1.29-.58-2.99-.58-3.32 0-5.23 1.9-1.9 1.89-2.43 5.36m19.53 4.62h-19.69q.19 2.45.87 4.23t1.8 2.94q1.12 1.17 2.65 1.74 1.54.57 3.4.57t3.2-.43q1.35-.43 2.36-.96t1.77-.96q.76-.44 1.47-.44.96 0 1.43.72l2.2 2.79q-1.27 1.49-2.86 2.49-1.58 1.01-3.3 1.61-1.72.61-3.5.86-1.78.24-3.46.24-3.31 0-6.17-1.1-2.85-1.1-4.96-3.25-2.1-2.15-3.31-5.33t-1.21-7.37q0-3.25 1.05-6.12 1.06-2.86 3.02-4.99 1.97-2.12 4.81-3.36t6.4-1.24q3.01 0 5.55.96t4.37 2.8q1.83 1.85 2.87 4.53t1.04 6.12q0 1.74-.37 2.34-.38.61-1.43.61m7.63-31.13h7.65v46.07h-7.65zm39.92 23.78h6.23q2.3 0 4-.57 1.71-.58 2.84-1.65 1.13-1.06 1.69-2.6.56-1.53.56-3.43 0-1.79-.56-3.25t-1.67-2.48q-1.12-1.02-2.83-1.57-1.7-.54-4.03-.54h-6.23zm-8.34-22.54h14.57q4.5 0 7.79 1.06 3.28 1.05 5.42 2.94t3.18 4.53q1.04 2.63 1.04 5.76 0 3.26-1.09 5.97-1.08 2.71-3.25 4.67-2.17 1.95-5.44 3.04-3.27 1.08-7.65 1.08h-6.23v15.78h-8.34zm44.83-1.24v17.67q1.86-1.73 4.09-2.82 2.23-1.08 5.24-1.08 2.61 0 4.62.88 2.02.88 3.36 2.48 1.35 1.6 2.05 3.81.7 2.22.7 4.89v20.24h-7.66v-20.24q0-2.92-1.33-4.51-1.34-1.6-4.06-1.6-1.99 0-3.72.9-1.74.9-3.29 2.45v23h-7.66v-46.07zm41.39 13.77q3.53 0 6.43 1.14 2.9 1.15 4.96 3.26t3.18 5.15q1.11 3.03 1.11 6.79 0 3.78-1.11 6.82-1.12 3.03-3.18 5.17t-4.96 3.29q-2.9 1.14-6.43 1.14-3.57 0-6.48-1.14-2.92-1.15-4.98-3.29t-3.19-5.17q-1.13-3.04-1.13-6.82 0-3.76 1.13-6.79 1.13-3.04 3.19-5.15t4.98-3.26q2.91-1.14 6.48-1.14m0 26.88q3.96 0 5.87-2.67t1.91-7.81q0-5.15-1.91-7.85-1.91-2.69-5.87-2.69-4.03 0-5.97 2.71t-1.94 7.83q0 5.11 1.94 7.79 1.94 2.69 5.97 2.69m32.14 5.92q-4.15 0-6.37-2.34-2.21-2.34-2.21-6.47v-17.76h-3.26q-.62 0-1.05-.4-.44-.41-.44-1.21v-3.04l5.12-.84 1.61-8.68q.15-.62.59-.96.43-.34 1.11-.34h3.97v10.01h8.5v5.46h-8.5v17.24q0 1.48.73 2.32t2 .84q.71 0 1.19-.17t.84-.36.64-.36.55-.17q.35 0 .56.17.22.17.47.52l2.29 3.71q-1.67 1.4-3.84 2.11-2.17.72-4.5.72m26.54-32.8q3.53 0 6.43 1.14 2.9 1.15 4.96 3.26t3.18 5.15q1.11 3.03 1.11 6.79 0 3.78-1.11 6.82-1.12 3.03-3.18 5.17t-4.96 3.29q-2.9 1.14-6.43 1.14-3.57 0-6.48-1.14-2.91-1.15-4.98-3.29-2.06-2.14-3.19-5.17-1.13-3.04-1.13-6.82 0-3.76 1.13-6.79 1.13-3.04 3.19-5.15 2.07-2.11 4.98-3.26 2.91-1.14 6.48-1.14m0 26.88q3.97 0 5.87-2.67 1.91-2.67 1.91-7.81 0-5.15-1.91-7.85-1.9-2.69-5.87-2.69-4.03 0-5.97 2.71t-1.94 7.83q0 5.11 1.94 7.79 1.94 2.69 5.97 2.69"/></svg>