<svg xmlns="http://www.w3.org/2000/svg" width="600" height="800" viewBox="0 0 600 800"><rect width="100%" height="100%" fill="#f5f5f5"/><path fill="#000000" d="M188.765 423.045q1.29 0 2.28 1l6.2 6.72q-5.15 6.38-12.66 9.77-7.52 3.4-18.05 3.4-9.42 0-16.94-3.22-7.51-3.22-12.84-8.95-5.32-5.73-8.16-13.69t-2.84-17.38q0-9.53 3.05-17.46 3.04-7.92 8.57-13.66 5.52-5.73 13.19-8.92 7.66-3.19 16.96-3.19 9.25 0 16.41 3.05 7.17 3.04 12.2 7.95l-5.27 7.31q-.46.71-1.2 1.23-.73.53-2.01.53-.88 0-1.82-.5-.93-.5-2.04-1.23-1.12-.73-2.58-1.61-1.46-.87-3.39-1.6-1.93-.74-4.48-1.23-2.54-.5-5.88-.5-5.67 0-10.38 2.02t-8.1 5.85-5.27 9.36q-1.87 5.53-1.87 12.6 0 7.14 2.02 12.7t5.47 9.36 8.13 5.82 10.06 2.02q3.22 0 5.82-.35 2.61-.35 4.8-1.11 2.19-.77 4.15-1.96 1.96-1.2 3.89-2.96.59-.52 1.23-.85.65-.32 1.35-.32m31.47-66.98v33.34q3.51-3.27 7.72-5.32 4.22-2.05 9.89-2.05 4.91 0 8.72 1.67 3.8 1.67 6.34 4.68 2.55 3.01 3.86 7.2 1.32 4.18 1.32 9.21v38.2h-14.45v-38.2q0-5.5-2.51-8.51-2.52-3.02-7.67-3.02-3.74 0-7.02 1.7-3.27 1.7-6.2 4.62v43.41h-14.45v-86.93zm83.25 71.43v-10.12q-6.26.29-10.53 1.08t-6.85 2.02q-2.57 1.23-3.68 2.86-1.11 1.64-1.11 3.57 0 3.8 2.25 5.44t5.88 1.64q4.44 0 7.69-1.61t6.35-4.88m-30.54-31.53-2.57-4.63q10.35-9.47 24.92-9.47 5.26 0 9.42 1.72 4.15 1.73 7.02 4.8 2.86 3.07 4.35 7.34 1.5 4.27 1.5 9.36v37.91h-6.56q-2.04 0-3.16-.61-1.11-.62-1.75-2.49l-1.29-4.33q-2.28 2.05-4.44 3.6-2.17 1.55-4.51 2.6t-5 1.61-5.88.56q-3.8 0-7.02-1.03-3.22-1.02-5.56-3.07t-3.62-5.09q-1.29-3.04-1.29-7.08 0-2.28.76-4.53t2.49-4.3q1.72-2.05 4.47-3.86 2.75-1.82 6.76-3.16 4.01-1.35 9.33-2.19 5.32-.85 12.17-1.03v-3.51q0-6.02-2.58-8.92-2.57-2.9-7.43-2.9-3.51 0-5.82.82t-4.06 1.85q-1.76 1.02-3.19 1.84t-3.19.82q-1.52 0-2.57-.79-1.06-.79-1.7-1.84m70.73-10.36.99 4.74q1.81-1.81 3.83-3.36t4.27-2.64q2.26-1.08 4.83-1.69 2.57-.62 5.62-.62 4.91 0 8.71 1.67t6.35 4.68q2.54 3.01 3.86 7.2 1.32 4.18 1.32 9.21v38.2h-14.45v-38.2q0-5.5-2.52-8.51-2.51-3.02-7.66-3.02-3.75 0-7.02 1.7-3.28 1.7-6.2 4.62v43.41h-14.45v-60.02h8.83q2.81 0 3.69 2.63m64.87 20.48h27.26q0-2.81-.79-5.3-.79-2.48-2.37-4.36-1.57-1.87-4-2.95t-5.65-1.08q-6.26 0-9.86 3.57-3.59 3.56-4.59 10.12m36.86 8.71h-37.15q.35 4.62 1.64 7.99 1.29 3.36 3.39 5.56 2.11 2.19 5 3.27 2.9 1.08 6.41 1.08t6.05-.82q2.55-.81 4.45-1.81 1.9-.99 3.33-1.81 1.44-.82 2.78-.82 1.82 0 2.69 1.34l4.16 5.27q-2.4 2.81-5.38 4.71-2.99 1.9-6.24 3.04-3.24 1.14-6.61 1.61-3.36.47-6.52.47-6.26 0-11.64-2.08t-9.36-6.14q-3.98-4.07-6.26-10.06-2.28-6-2.28-13.9 0-6.14 1.99-11.55t5.7-9.42q3.72-4.01 9.07-6.35t12.08-2.34q5.67 0 10.47 1.82 4.8 1.81 8.25 5.29t5.41 8.54 1.96 11.56q0 3.27-.7 4.41t-2.69 1.14m14.39-58.73h14.45v86.93h-14.45z"/></svg>