<svg xmlns="http://www.w3.org/2000/svg" width="600" height="800" viewBox="0 0 600 800"><rect width="100%" height="100%" fill="#f5f5f5"/><path fill="#000000" d="M161.265 369.965h7.37l-19.85 49.16h-8.26l-19.86-49.16h7.34q1.19 0 1.94.57.75.58 1.12 1.5l11.6 29.99q.58 1.46 1.1 3.21.53 1.75 1.01 3.66.4-1.91.88-3.66t1.05-3.21l11.53-29.99q.27-.78 1.07-1.43.8-.64 1.96-.64m26.58 13.73q3.88 0 7.06 1.26t5.44 3.57 3.48 5.64q1.23 3.34 1.23 7.45 0 4.15-1.23 7.48-1.22 3.33-3.48 5.68-2.26 2.34-5.44 3.6t-7.06 1.26q-3.91 0-7.1-1.26-3.2-1.26-5.46-3.6-2.26-2.35-3.5-5.68t-1.24-7.48q0-4.11 1.24-7.45 1.24-3.33 3.5-5.64t5.46-3.57q3.19-1.26 7.1-1.26m0 29.48q4.36 0 6.45-2.92 2.09-2.93 2.09-8.57 0-5.65-2.09-8.6-2.09-2.96-6.45-2.96-4.42 0-6.54 2.97-2.13 2.98-2.13 8.59t2.13 8.55q2.12 2.94 6.54 2.94m36.38-12.34q1.57 0 2.72-.43 1.16-.42 1.92-1.17.77-.75 1.16-1.8.39-1.06.39-2.31 0-2.59-1.55-4.1-1.54-1.51-4.64-1.51-3.09 0-4.64 1.51-1.54 1.51-1.54 4.1 0 1.22.39 2.27.39 1.06 1.15 1.82.77.77 1.94 1.19 1.17.43 2.7.43m9.49 19.85q0-1.02-.61-1.66-.61-.65-1.67-1-1.05-.36-2.46-.53t-3-.26q-1.58-.08-3.26-.15t-3.28-.27q-1.39.78-2.26 1.83-.87 1.06-.87 2.45 0 .92.46 1.72t1.46 1.38q1.01.57 2.6.9 1.6.32 3.91.32 2.35 0 4.05-.36 1.7-.35 2.8-.98 1.11-.63 1.62-1.5t.51-1.89m-1.67-35.25h10.03v3.12q0 1.5-1.8 1.84l-3.13.58q.72 1.8.72 3.94 0 2.59-1.04 4.68t-2.87 3.55q-1.84 1.46-4.34 2.26t-5.39.8q-1.02 0-1.97-.1t-1.87-.27q-1.63.98-1.63 2.21 0 1.05.97 1.54.97.5 2.57.7 1.59.2 3.63.25 2.04.06 4.19.23 2.14.17 4.18.59 2.04.43 3.64 1.34 1.59.92 2.56 2.5t.97 4.07q0 2.31-1.14 4.48-1.14 2.18-3.3 3.88-2.15 1.7-5.3 2.74-3.14 1.03-7.16 1.03-3.94 0-6.86-.76-2.93-.77-4.87-2.04-1.93-1.28-2.89-2.94-.95-1.67-.95-3.47 0-2.45 1.48-4.1t4.06-2.63q-1.39-.72-2.21-1.91-.81-1.19-.81-3.12 0-.79.29-1.62t.85-1.65q.56-.81 1.41-1.55.85-.73 2-1.3-2.65-1.43-4.16-3.81t-1.51-5.58q0-2.58 1.03-4.67 1.04-2.09 2.89-3.57 1.86-1.48 4.39-2.26 2.53-.79 5.52-.79 2.25 0 4.22.46t3.6 1.35m37-1.19h8.39v34.88h-5.13q-1.67 0-2.11-1.53l-.58-2.79q-2.14 2.18-4.72 3.52-2.59 1.34-6.09 1.34-2.85 0-5.05-.97-2.19-.96-3.69-2.73-1.49-1.77-2.26-4.2-.76-2.43-.76-5.36v-22.16h8.4v22.16q0 3.2 1.47 4.95 1.48 1.75 4.44 1.75 2.18 0 4.08-.97 1.91-.97 3.61-2.67zm23.32 13.43h15.84q0-1.64-.46-3.08-.45-1.45-1.37-2.53-.92-1.09-2.33-1.72t-3.28-.63q-3.64 0-5.73 2.07-2.09 2.08-2.67 5.89m21.42 5.06h-21.59q.2 2.69.95 4.64.75 1.96 1.97 3.23 1.23 1.28 2.91 1.91t3.72.63 3.52-.48 2.59-1.05q1.1-.58 1.93-1.06.84-.47 1.62-.47 1.05 0 1.56.78l2.42 3.06q-1.4 1.63-3.13 2.73-1.73 1.11-3.62 1.77-1.89.67-3.84.94-1.96.27-3.79.27-3.64 0-6.77-1.21-3.13-1.2-5.44-3.57-2.31-2.36-3.64-5.85-1.32-3.48-1.32-8.07 0-3.57 1.15-6.72 1.16-3.14 3.32-5.47t5.27-3.69 7.02-1.36q3.3 0 6.08 1.06 2.79 1.05 4.8 3.07 2 2.03 3.14 4.97t1.14 6.71q0 1.91-.41 2.57-.4.66-1.56.66m35.29-32.77v49.16h-9.18v-49.16zm21.29 49.7q-4.56 0-6.99-2.56-2.43-2.57-2.43-7.09v-19.48h-3.57q-.68 0-1.16-.45-.47-.44-.47-1.32v-3.33l5.61-.92 1.76-9.52q.17-.68.65-1.06.48-.37 1.22-.37h4.36v10.98h9.31v5.99h-9.31v18.9q0 1.63.8 2.55.79.92 2.19.92.78 0 1.31-.19.52-.19.91-.39.4-.2.7-.39.31-.19.61-.19.38 0 .62.19.23.19.51.56l2.51 4.08q-1.83 1.53-4.21 2.31t-4.93.78m32.09-9.55v-5.88q-3.64.17-6.12.63t-3.98 1.17q-1.49.71-2.14 1.67-.64.95-.64 2.07 0 2.21 1.31 3.16 1.3.95 3.41.95 2.59 0 4.47-.93 1.89-.94 3.69-2.84m-17.75-18.33-1.49-2.68q6.02-5.51 14.48-5.51 3.06 0 5.48 1 2.41 1.01 4.08 2.79 1.66 1.79 2.53 4.27t.87 5.44v22.03h-3.81q-1.19 0-1.84-.36-.64-.35-1.02-1.44l-.75-2.52q-1.32 1.19-2.58 2.09t-2.62 1.52q-1.36.61-2.9.93-1.55.32-3.42.32-2.21 0-4.08-.59-1.87-.6-3.23-1.79t-2.11-2.95q-.75-1.77-.75-4.12 0-1.32.44-2.63.45-1.31 1.45-2.5t2.6-2.25q1.6-1.05 3.93-1.83t5.42-1.28q3.09-.49 7.07-.59v-2.04q0-3.5-1.49-5.19-1.5-1.68-4.32-1.68-2.04 0-3.38.48-1.35.47-2.37 1.07l-1.85 1.07q-.83.47-1.85.47-.89 0-1.5-.46-.61-.45-.99-1.07m33.94-23.18h8.39v50.52h-8.39zm17.06 15.64h8.44v34.88h-8.44zm9.59-10.17q0 1.09-.44 2.04t-1.17 1.67q-.73.71-1.72 1.13-.99.43-2.11.43-1.09 0-2.05-.43-.97-.42-1.69-1.13-.71-.72-1.14-1.67-.42-.95-.42-2.04 0-1.12.42-2.11.43-.98 1.14-1.7.72-.71 1.69-1.14.96-.42 2.05-.42 1.12 0 2.11.42.99.43 1.72 1.14.73.72 1.17 1.7.44.99.44 2.11m25.84 36.04v-5.88q-3.64.17-6.12.63t-3.98 1.17q-1.49.71-2.14 1.67-.64.95-.64 2.07 0 2.21 1.3 3.16 1.31.95 3.42.95 2.59 0 4.47-.93 1.89-.94 3.69-2.84m-17.75-18.33-1.49-2.68q6.02-5.51 14.48-5.51 3.06 0 5.48 1 2.41 1.01 4.08 2.79 1.66 1.79 2.53 4.27t.87 5.44v22.03h-3.81q-1.19 0-1.84-.36-.64-.35-1.02-1.44l-.75-2.52q-1.32 1.19-2.58 2.09t-2.62 1.52q-1.36.61-2.91.93-1.54.32-3.41.32-2.21 0-4.08-.59-1.87-.6-3.23-1.79t-2.11-2.95q-.75-1.77-.75-4.12 0-1.32.44-2.63.45-1.31 1.45-2.5t2.6-2.25q1.6-1.05 3.93-1.83t5.42-1.28q3.09-.49 7.07-.59v-2.04q0-3.5-1.49-5.19-1.5-1.68-4.32-1.68-2.04 0-3.39.48-1.34.47-2.36 1.07l-1.85 1.07q-.83.47-1.85.47-.89 0-1.5-.46-.61-.45-.99-1.07"/></svg>