<svg xmlns="http://www.w3.org/2000/svg" width="800" height="1000" viewBox="0 0 800 1000"><rect width="100%" height="100%" fill="#f5f5f5"/><path fill="#000000" d="M217.83 472.17h-35.95v23.97h30.35v12.04h-30.35v32.98h-15.12v-80.98h51.07zm40.49 54.15v-9.69q-6 .28-10.08 1.04-4.09.75-6.56 1.93-2.46 1.18-3.52 2.74-1.07 1.57-1.07 3.42 0 3.64 2.16 5.21 2.15 1.57 5.63 1.57 4.25 0 7.36-1.54t6.08-4.68m-29.24-30.18-2.46-4.43q9.91-9.07 23.86-9.07 5.04 0 9.01 1.65 3.98 1.65 6.72 4.59 2.75 2.94 4.17 7.03 1.43 4.09 1.43 8.96v36.29h-6.27q-1.96 0-3.02-.59-1.07-.59-1.68-2.38l-1.24-4.14q-2.18 1.96-4.25 3.44-2.07 1.49-4.31 2.49-2.24 1.01-4.79 1.54-2.55.54-5.63.54-3.64 0-6.72-.98t-5.32-2.94-3.47-4.88q-1.23-2.91-1.23-6.77 0-2.19.72-4.34.73-2.16 2.38-4.12 1.66-1.96 4.29-3.69 2.63-1.74 6.47-3.03 3.83-1.29 8.93-2.1 5.09-.81 11.65-.98v-3.36q0-5.77-2.47-8.54-2.46-2.77-7.11-2.77-3.36 0-5.57.78-2.21.79-3.89 1.77t-3.06 1.76q-1.37.79-3.05.79-1.45 0-2.46-.76t-1.63-1.76m93.92-6.22-3.14 4.98q-.56.9-1.18 1.26-.61.37-1.56.37-1.01 0-2.16-.56t-2.66-1.26-3.44-1.26q-1.94-.56-4.57-.56-4.09 0-6.41 1.73-2.32 1.74-2.32 4.54 0 1.85 1.2 3.11t3.19 2.21 4.51 1.71q2.52.75 5.12 1.65 2.61.9 5.13 2.04 2.52 1.15 4.51 2.92 1.98 1.76 3.19 4.22 1.2 2.47 1.2 5.94 0 4.14-1.48 7.64-1.49 3.5-4.4 6.05t-7.19 3.98q-4.29 1.43-9.89 1.43-2.97 0-5.79-.54-2.83-.53-5.44-1.48-2.6-.95-4.81-2.24t-3.89-2.8l3.19-5.26q.61-.96 1.45-1.46t2.13-.5 2.44.72q1.15.73 2.66 1.57t3.55 1.57q2.05.73 5.18.73 2.47 0 4.23-.59 1.77-.59 2.91-1.54 1.15-.95 1.68-2.21.54-1.26.54-2.61 0-2.01-1.21-3.3-1.2-1.29-3.19-2.24t-4.54-1.71q-2.54-.75-5.2-1.65t-5.21-2.1-4.54-3.05-3.19-4.54-1.2-6.49q0-3.53 1.4-6.72 1.4-3.2 4.11-5.58 2.72-2.38 6.78-3.8 4.06-1.43 9.38-1.43 5.93 0 10.81 1.96 4.87 1.96 8.12 5.15m24.86-31.98v31.92q3.36-3.13 7.39-5.09t9.47-1.96q4.7 0 8.34 1.59 3.64 1.6 6.08 4.48 2.43 2.89 3.69 6.89 1.26 4.01 1.26 8.82v36.57h-13.83v-36.57q0-5.26-2.41-8.15-2.41-2.88-7.33-2.88-3.59 0-6.72 1.62-3.14 1.63-5.94 4.43v41.55h-13.83v-83.22zm49.78 25.76h13.89v57.46h-13.89zm15.8-16.74q0 1.79-.73 3.36t-1.93 2.74q-1.21 1.18-2.83 1.88-1.63.7-3.47.7-1.8 0-3.39-.7-1.6-.7-2.77-1.88-1.18-1.17-1.88-2.74t-.7-3.36q0-1.85.7-3.47.7-1.63 1.88-2.8 1.17-1.18 2.77-1.88 1.59-.7 3.39-.7 1.84 0 3.47.7 1.62.7 2.83 1.88 1.2 1.17 1.93 2.8.73 1.62.73 3.47m37.63 15.85q6.38 0 11.62 2.07 5.23 2.07 8.96 5.88 3.72 3.81 5.74 9.3 2.01 5.48 2.01 12.26 0 6.83-2.01 12.32-2.02 5.49-5.74 9.35-3.73 3.87-8.96 5.94-5.24 2.07-11.62 2.07-6.44 0-11.71-2.07-5.26-2.07-8.98-5.94-3.73-3.86-5.77-9.35-2.05-5.49-2.05-12.32 0-6.78 2.05-12.26 2.04-5.49 5.77-9.3 3.72-3.81 8.98-5.88 5.27-2.07 11.71-2.07m0 48.55q7.17 0 10.61-4.82 3.44-4.81 3.44-14.11 0-9.29-3.44-14.17-3.44-4.87-10.61-4.87-7.28 0-10.78 4.9t-3.5 14.14 3.5 14.09q3.5 4.84 10.78 4.84m50.9-45.14.95 4.54q1.74-1.74 3.67-3.22t4.09-2.52 4.62-1.62q2.46-.59 5.38-.59 4.7 0 8.34 1.59 3.64 1.6 6.08 4.48 2.43 2.89 3.69 6.89 1.26 4.01 1.26 8.82v36.57h-13.83v-36.57q0-5.26-2.41-8.15-2.41-2.88-7.33-2.88-3.59 0-6.72 1.62-3.14 1.63-5.94 4.43v41.55h-13.83V483.7h8.45q2.69 0 3.53 2.52m84.9-2.18-7.28-1.29q.84-5.82 3.25-10.22 2.4-4.39 6.02-7.33 3.61-2.94 8.28-4.43 4.68-1.48 10.06-1.48 5.6 0 10.1 1.59 4.51 1.6 7.7 4.43 3.2 2.83 4.9 6.63 1.71 3.81 1.71 8.24 0 3.86-.87 6.8-.86 2.94-2.49 5.12-1.62 2.19-4.03 3.7t-5.43 2.52q7.28 2.3 10.86 7 3.59 4.7 3.59 11.82 0 6.04-2.24 10.69t-6.05 7.81q-3.81 3.17-8.82 4.79-5.01 1.63-10.61 1.63-6.11 0-10.64-1.4-4.54-1.4-7.9-4.15-3.36-2.74-5.71-6.72-2.35-3.97-4.03-9.18l6.1-2.52q2.41-1.01 4.51-.53 2.1.47 3.05 2.26 1.01 1.96 2.21 3.87 1.21 1.9 2.89 3.39 1.68 1.48 3.94 2.4 2.27.93 5.41.93 3.53 0 6.16-1.15t4.39-3q1.77-1.84 2.64-4.11.86-2.27.86-4.57 0-2.91-.61-5.29-.62-2.38-2.58-4.06t-5.63-2.63q-3.66-.95-9.82-.95v-9.86q5.09-.05 8.45-.95t5.35-2.49q1.99-1.6 2.77-3.84.79-2.24.79-4.93 0-5.71-3.2-8.68-3.19-2.96-8.51-2.96-2.46 0-4.53.7-2.08.7-3.73 1.96t-2.77 2.94-1.68 3.69q-.95 2.58-2.49 3.42t-4.34.39"/></svg>