<svg xmlns="http://www.w3.org/2000/svg" width="800" height="1000" viewBox="0 0 800 1000"><rect width="100%" height="100%" fill="#f5f5f5"/><path fill="#000000" d="M214.815 473.655h-34.02v21.26h26.81v10.97h-26.81v21.68h34.02v11.39h-48.33v-76.64h48.33zm44.68 49.19v-24.38q-2.23-2.71-4.85-3.82t-5.64-1.11q-2.97 0-5.36 1.11-2.38 1.11-4.08 3.37-1.69 2.25-2.59 5.72-.91 3.47-.91 8.19 0 4.77.77 8.08.77 3.32 2.2 5.41t3.5 3.02 4.61.93q4.08 0 6.94-1.7 2.87-1.69 5.41-4.82m0-62.65h13.09v78.76h-8q-2.6 0-3.29-2.38l-1.11-5.25q-3.29 3.76-7.55 6.09-4.27 2.33-9.94 2.33-4.45 0-8.16-1.85-3.71-1.86-6.39-5.38t-4.13-8.72q-1.46-5.19-1.46-11.87 0-6.04 1.64-11.24 1.65-5.19 4.72-9.01 3.07-3.81 7.37-5.96 4.29-2.14 9.64-2.14 4.56 0 7.79 1.43 3.24 1.43 5.78 3.86zm26.45 24.38h13.14v54.38h-13.14zm14.94-15.84q0 1.69-.69 3.17-.68 1.49-1.82 2.6t-2.68 1.78q-1.54.66-3.29.66-1.69 0-3.2-.66-1.51-.67-2.63-1.78-1.11-1.11-1.77-2.6-.66-1.48-.66-3.17 0-1.75.66-3.29t1.77-2.65q1.12-1.11 2.63-1.78 1.51-.66 3.2-.66 1.75 0 3.29.66 1.54.67 2.68 1.78t1.82 2.65q.69 1.54.69 3.29m29.68 71.07q-7.1 0-10.89-4t-3.79-11.05v-30.37h-5.56q-1.06 0-1.8-.69-.75-.69-.75-2.07v-5.19l8.75-1.43 2.75-14.84q.27-1.06 1.01-1.65.74-.58 1.91-.58h6.78v17.12h14.53v9.33h-14.53v29.46q0 2.55 1.25 3.98 1.24 1.43 3.42 1.43 1.22 0 2.04-.29t1.43-.61 1.09-.61q.47-.29.95-.29.58 0 .95.29t.8.88l3.92 6.35q-2.86 2.39-6.57 3.61t-7.69 1.22m45.37-56.08q6.04 0 11 1.96 4.95 1.97 8.48 5.57 3.52 3.6 5.43 8.8 1.91 5.19 1.91 11.61 0 6.46-1.91 11.66-1.91 5.19-5.43 8.85-3.53 3.65-8.48 5.61-4.96 1.96-11 1.96-6.09 0-11.08-1.96-4.98-1.96-8.5-5.61-3.53-3.66-5.46-8.85-1.94-5.2-1.94-11.66 0-6.42 1.94-11.61 1.93-5.2 5.46-8.8 3.52-3.6 8.5-5.57 4.99-1.96 11.08-1.96m0 45.95q6.79 0 10.05-4.55 3.25-4.56 3.25-13.36t-3.25-13.41q-3.26-4.61-10.05-4.61-6.89 0-10.2 4.64t-3.31 13.38q0 8.75 3.31 13.33t10.2 4.58m48.39-41.81.8 6.15q2.54-4.88 6.04-7.66t8.27-2.78q3.76 0 6.04 1.64l-.85 9.8q-.27.96-.77 1.35-.5.4-1.35.4-.8 0-2.36-.26-1.56-.27-3.05-.27-2.17 0-3.87.64-1.69.63-3.04 1.83-1.35 1.19-2.39 2.88-1.03 1.7-1.93 3.87v33.5h-13.09v-54.38h7.68q2.02 0 2.81.72.8.71 1.06 2.57m28.41-3.29h13.14v54.38h-13.14zm14.94-15.84q0 1.69-.68 3.17-.69 1.49-1.83 2.6t-2.68 1.78q-1.54.66-3.29.66-1.69 0-3.2-.66-1.51-.67-2.63-1.78-1.11-1.11-1.77-2.6-.66-1.48-.66-3.17 0-1.75.66-3.29t1.77-2.65q1.12-1.11 2.63-1.78 1.51-.66 3.2-.66 1.75 0 3.29.66 1.54.67 2.68 1.78t1.83 2.65q.68 1.54.68 3.29m40.28 56.18v-9.17q-5.67.26-9.54.98-3.86.71-6.2 1.82-2.33 1.12-3.34 2.6-1 1.49-1 3.24 0 3.44 2.04 4.92 2.04 1.49 5.32 1.49 4.03 0 6.97-1.46 2.95-1.46 5.75-4.42m-27.66-28.57-2.33-4.19q9.38-8.58 22.57-8.58 4.77 0 8.54 1.56 3.76 1.56 6.36 4.34 2.59 2.79 3.95 6.66 1.35 3.87 1.35 8.48v34.34h-5.94q-1.85 0-2.86-.56-1.01-.55-1.59-2.25l-1.17-3.92q-2.06 1.85-4.02 3.26-1.97 1.4-4.09 2.36-2.12.95-4.53 1.45-2.41.51-5.32.51-3.45 0-6.36-.93-2.92-.93-5.04-2.78-2.12-1.86-3.28-4.61-1.17-2.76-1.17-6.42 0-2.06.69-4.1t2.25-3.9q1.56-1.85 4.06-3.5 2.49-1.64 6.12-2.86t8.45-1.99q4.82-.76 11.02-.92v-3.18q0-5.46-2.33-8.09-2.33-2.62-6.73-2.62-3.18 0-5.27.74-2.1.74-3.69 1.67t-2.88 1.67q-1.3.74-2.89.74-1.38 0-2.33-.71-.96-.72-1.54-1.67m52.89-36.15h13.09v78.76h-13.09zm86.55 68.96h13.78v9.8h-42.4v-9.8h15.53v-44.68q0-2.65.16-5.46l-11.02 9.22q-.96.74-1.89.93-.92.18-1.74.02-.83-.16-1.46-.55-.64-.4-.96-.88l-4.13-5.67 23.37-19.87h10.76z"/></svg>