<svg xmlns="http://www.w3.org/2000/svg" width="800" height="1000" viewBox="0 0 800 1000"><rect width="100%" height="100%" fill="#f5f5f5"/><path fill="#000000" d="M182.135 500.825h11.36q4.18 0 7.29-1.05 3.11-1.04 5.17-2.99t3.08-4.75q1.01-2.8 1.01-6.24 0-3.28-1.01-5.94-1.02-2.65-3.05-4.52-2.04-1.86-5.15-2.85-3.1-.99-7.34-.99h-11.36zm-15.2-41.08h26.56q8.19 0 14.18 1.92t9.89 5.37 5.79 8.25 1.89 10.51q0 5.93-1.98 10.87-1.97 4.95-5.93 8.51-3.95 3.56-9.91 5.53-5.96 1.98-13.93 1.98h-11.36v28.76h-15.2zm93.4 22.83q6.44 0 11.72 2.09 5.29 2.09 9.04 5.93 3.76 3.84 5.79 9.38 2.04 5.54 2.04 12.37 0 6.9-2.04 12.43-2.03 5.54-5.79 9.44-3.75 3.9-9.04 5.99-5.28 2.09-11.72 2.09-6.5 0-11.81-2.09t-9.07-5.99-5.82-9.44q-2.06-5.53-2.06-12.43 0-6.83 2.06-12.37t5.82-9.38 9.07-5.93 11.81-2.09m0 48.98q7.23 0 10.71-4.86 3.47-4.86 3.47-14.23 0-9.38-3.47-14.3-3.48-4.91-10.71-4.91-7.35 0-10.88 4.94t-3.53 14.27q0 9.32 3.53 14.21 3.53 4.88 10.88 4.88m51.58-44.58.85 6.56q2.71-5.2 6.44-8.17 3.73-2.96 8.82-2.96 4.01 0 6.44 1.75l-.91 10.45q-.28 1.02-.82 1.44-.53.43-1.44.43-.84 0-2.51-.29-1.67-.28-3.25-.28-2.32 0-4.12.68-1.81.68-3.25 1.95t-2.55 3.08q-1.1 1.81-2.06 4.12v35.71h-13.95v-57.97h8.19q2.15 0 2.99.76.85.77 1.13 2.74m49.16 55.37q-7.57 0-11.61-4.26-4.04-4.27-4.04-11.78v-32.38h-5.93q-1.13 0-1.93-.73-.79-.74-.79-2.2v-5.54l9.33-1.53 2.93-15.82q.29-1.13 1.08-1.75t2.03-.62h7.23v18.25h15.48v9.94h-15.48v31.42q0 2.71 1.33 4.23 1.33 1.53 3.65 1.53 1.29 0 2.17-.31t1.53-.65 1.15-.65q.51-.31 1.02-.31.62 0 1.02.31.39.31.85.93l4.18 6.78q-3.05 2.54-7.01 3.84-3.95 1.3-8.19 1.3m35.03-55.37.85 6.56q2.71-5.2 6.44-8.17 3.73-2.96 8.81-2.96 4.01 0 6.44 1.75l-.9 10.45q-.28 1.02-.82 1.44-.54.43-1.44.43-.85 0-2.52-.29-1.66-.28-3.25-.28-2.31 0-4.12.68t-3.25 1.95-2.54 3.08-2.06 4.12v35.71h-13.96v-57.97h8.19q2.15 0 3 .76.85.77 1.13 2.74m60.45 39.5v-9.78q-6.04.29-10.17 1.05-4.12.76-6.61 1.95-2.48 1.18-3.56 2.77-1.07 1.58-1.07 3.44 0 3.67 2.18 5.26 2.17 1.58 5.67 1.58 4.3 0 7.43-1.55 3.14-1.56 6.13-4.72m-29.49-30.46-2.49-4.46q10-9.15 24.07-9.15 5.09 0 9.1 1.66 4.01 1.67 6.78 4.64 2.77 2.96 4.21 7.09 1.44 4.12 1.44 9.04v36.61h-6.33q-1.98 0-3.05-.59-1.07-.6-1.69-2.4l-1.25-4.19q-2.2 1.98-4.29 3.48t-4.35 2.51q-2.26 1.02-4.83 1.56-2.57.53-5.68.53-3.67 0-6.78-.98-3.11-.99-5.37-2.97t-3.5-4.92q-1.24-2.93-1.24-6.83 0-2.21.73-4.38.73-2.18 2.4-4.15 1.67-1.98 4.32-3.73 2.66-1.76 6.53-3.05 3.87-1.3 9.01-2.12t11.75-.99v-3.39q0-5.82-2.48-8.62-2.49-2.79-7.18-2.79-3.39 0-5.62.79t-3.93 1.78q-1.69.98-3.08 1.78-1.38.79-3.08.79-1.46 0-2.48-.77-1.02-.76-1.64-1.78m56.67-12.54h14.01v57.97h-14.01zm15.93-16.89q0 1.81-.73 3.39-.74 1.58-1.95 2.77-1.22 1.18-2.85 1.89-1.64.7-3.51.7-1.8 0-3.42-.7-1.61-.71-2.79-1.89-1.19-1.19-1.89-2.77-.71-1.58-.71-3.39 0-1.87.71-3.51.7-1.63 1.89-2.82 1.18-1.19 2.79-1.89 1.62-.71 3.42-.71 1.87 0 3.51.71 1.63.7 2.85 1.89 1.21 1.19 1.95 2.82.73 1.64.73 3.51m31.64 75.76q-7.57 0-11.61-4.26-4.04-4.27-4.04-11.78v-32.38h-5.93q-1.13 0-1.92-.73-.79-.74-.79-2.2v-5.54l9.32-1.53 2.94-15.82q.28-1.13 1.07-1.75t2.04-.62h7.23v18.25h15.48v9.94h-15.48v31.42q0 2.71 1.33 4.23 1.32 1.53 3.64 1.53 1.3 0 2.18-.31.87-.31 1.52-.65t1.16-.65 1.02-.31q.62 0 1.01.31.4.31.85.93l4.18 6.78q-3.05 2.54-7 3.84-3.96 1.3-8.2 1.3m87.07-11.35h14.69v10.45h-45.2v-10.45h16.55v-47.63q0-2.83.17-5.82l-11.75 9.83q-1.02.79-2 .99-.99.2-1.87.03-.87-.17-1.55-.6-.68-.42-1.02-.93l-4.41-6.04 24.92-21.19h11.47z"/></svg>