<svg xmlns="http://www.w3.org/2000/svg" width="600" height="800" viewBox="0 0 600 800"><rect width="100%" height="100%" fill="#f5f5f5"/><path fill="#000000" d="M146.59 376.4h7.16v38.32h-7.16v-16.75H128.6v16.75h-7.16V376.4h7.16v16.48h17.99zm29.02 31.3v-4.59q-2.84.14-4.77.49-1.93.36-3.1.92-1.17.55-1.67 1.3-.5.74-.5 1.61 0 1.73 1.02 2.47t2.66.74q2.01 0 3.48-.73 1.48-.73 2.88-2.21m-13.83-14.29-1.17-2.09q4.69-4.29 11.29-4.29 2.38 0 4.27.78 1.88.78 3.18 2.17 1.29 1.39 1.97 3.33.68 1.93.68 4.24v17.17h-2.97q-.93 0-1.43-.28-.51-.28-.8-1.12l-.58-1.97q-1.03.93-2.01 1.63-.99.71-2.05 1.18-1.06.48-2.26.73-1.21.25-2.66.25-1.73 0-3.18-.46-1.46-.46-2.52-1.39t-1.64-2.31q-.59-1.37-.59-3.2 0-1.04.35-2.06.34-1.02 1.12-1.94.78-.93 2.03-1.75t3.06-1.43q1.82-.61 4.23-1 2.41-.38 5.51-.46v-1.59q0-2.73-1.17-4.04-1.16-1.31-3.36-1.31-1.59 0-2.64.37t-1.84.83q-.8.46-1.44.84-.65.37-1.45.37-.69 0-1.16-.36-.48-.36-.77-.84m32.14-4.24.4 3.08q1.27-2.44 3.02-3.83t4.13-1.39q1.89 0 3.02.82l-.42 4.9q-.13.48-.38.68-.26.2-.68.2-.4 0-1.18-.14-.78-.13-1.52-.13-1.09 0-1.94.32-.84.32-1.52.91-.68.6-1.19 1.45-.52.85-.97 1.93v16.75h-6.55v-27.19h3.85q1 0 1.4.36t.53 1.28m20.54 6.31v12.19q1.11 1.35 2.42 1.91 1.32.56 2.85.56 1.49 0 2.68-.56t2.03-1.7q.83-1.14 1.28-2.87.45-1.74.45-4.1 0-2.38-.38-4.04-.39-1.65-1.1-2.69-.72-1.03-1.74-1.51-1.02-.47-2.32-.47-2.04 0-3.47.86t-2.7 2.42m-.88-6.76.53 2.52q1.67-1.88 3.79-3.05 2.12-1.16 4.99-1.16 2.22 0 4.06.92 1.85.93 3.18 2.69 1.34 1.77 2.07 4.35t.73 5.92q0 3.05-.82 5.65t-2.35 4.5q-1.52 1.91-3.68 2.98-2.16 1.08-4.84 1.08-2.28 0-3.89-.7-1.62-.71-2.89-1.95v11.13h-6.55v-36.07h4q1.28 0 1.67 1.19m29.6 9.28h12.35q0-1.27-.35-2.4-.36-1.13-1.08-1.97-.71-.85-1.81-1.34t-2.56-.49q-2.84 0-4.47 1.61-1.62 1.62-2.08 4.59m16.7 3.95h-16.83q.16 2.09.74 3.61.59 1.53 1.54 2.52.96 1 2.27 1.49t2.9.49 2.74-.38q1.15-.37 2.02-.82.86-.45 1.51-.82t1.25-.37q.83 0 1.22.61l1.89 2.39q-1.09 1.27-2.44 2.13t-2.83 1.38q-1.47.51-2.99.73-1.52.21-2.95.21-2.84 0-5.28-.94t-4.24-2.79q-1.8-1.84-2.83-4.55-1.04-2.72-1.04-6.3 0-2.78.9-5.23.91-2.45 2.59-4.27 1.68-1.81 4.11-2.87 2.42-1.06 5.47-1.06 2.57 0 4.74.82t3.74 2.4q1.56 1.57 2.45 3.87.89 2.29.89 5.23 0 1.48-.32 2t-1.22.52m12.22-12.78.39 3.08q1.28-2.44 3.02-3.83 1.75-1.39 4.14-1.39 1.88 0 3.02.82l-.42 4.9q-.14.48-.39.68t-.67.2q-.4 0-1.18-.14-.79-.13-1.53-.13-1.08 0-1.93.32t-1.53.91q-.67.6-1.19 1.45-.51.85-.97 1.93v16.75h-6.54v-27.19h3.84q1.01 0 1.41.36.39.36.53 1.28m32.06 1.3-1.48 2.36q-.27.43-.56.6t-.74.17q-.48 0-1.02-.27-.54-.26-1.26-.59t-1.63-.6q-.91-.26-2.16-.26-1.93 0-3.03.82t-1.1 2.14q0 .88.57 1.48.57.59 1.51 1.04t2.13.81 2.42.78q1.24.43 2.43.97t2.13 1.38q.94.83 1.51 2 .57 1.16.57 2.81 0 1.96-.7 3.61-.7 1.66-2.08 2.87-1.38 1.2-3.41 1.88-2.02.67-4.67.67-1.41 0-2.75-.25-1.33-.25-2.57-.7-1.23-.45-2.27-1.06-1.05-.61-1.85-1.33l1.51-2.49q.3-.45.69-.68.4-.24 1.01-.24t1.15.34q.55.35 1.26.74.72.4 1.68.75.97.34 2.46.34 1.16 0 2-.28.83-.28 1.37-.73.55-.45.8-1.04.25-.6.25-1.24 0-.95-.57-1.56t-1.51-1.06-2.15-.81q-1.2-.36-2.46-.78t-2.46-.99q-1.21-.57-2.15-1.45-.94-.87-1.51-2.14-.57-1.28-.57-3.08 0-1.67.66-3.18t1.95-2.64q1.28-1.12 3.21-1.8 1.92-.67 4.43-.67 2.81 0 5.12.92 2.3.93 3.84 2.44m26.26 18.69h7.21q1.99 0 3.34-.48t2.16-1.27q.81-.8 1.17-1.86.35-1.06.35-2.25 0-1.25-.39-2.24-.4-.99-1.25-1.7-.85-.7-2.19-1.07-1.33-.37-3.22-.37h-7.18zm6.07-27.25h-6.07v11.08h5.67q3.66 0 5.53-1.32 1.87-1.33 1.87-4.22 0-2.99-1.7-4.27-1.69-1.27-5.3-1.27m-13.2-5.51h13.2q3.76 0 6.44.72 2.68.71 4.39 2.04 1.71 1.32 2.5 3.2.8 1.89.8 4.24 0 1.35-.4 2.59-.4 1.23-1.23 2.3-.84 1.08-2.12 1.95-1.29.87-3.06 1.48 7.89 1.78 7.89 8.54 0 2.44-.93 4.5-.92 2.07-2.7 3.57-1.77 1.49-4.37 2.34t-5.94.85h-14.47zm48.23 31.3v-4.59q-2.83.14-4.77.49-1.93.36-3.1.92-1.16.55-1.67 1.3-.5.74-.5 1.61 0 1.73 1.02 2.47t2.66.74q2.02 0 3.49-.73t2.87-2.21m-13.83-14.29-1.16-2.09q4.69-4.29 11.28-4.29 2.39 0 4.27.78t3.18 2.17 1.97 3.33q.68 1.93.68 4.24v17.17h-2.97q-.92 0-1.43-.28-.5-.28-.79-1.12l-.59-1.97q-1.03.93-2.01 1.63-.98.71-2.04 1.18-1.06.48-2.27.73-1.2.25-2.66.25-1.72 0-3.18-.46t-2.52-1.39-1.64-2.31q-.58-1.37-.58-3.2 0-1.04.34-2.06.35-1.02 1.13-1.94.78-.93 2.02-1.75 1.25-.82 3.07-1.43 1.81-.61 4.22-1 2.41-.38 5.51-.46v-1.59q0-2.73-1.16-4.04-1.17-1.31-3.37-1.31-1.59 0-2.63.37-1.05.37-1.85.83l-1.44.84q-.65.37-1.44.37-.69 0-1.17-.36t-.77-.84m45.9-5.88v2.7q0 .69-.24 1.36-.24.66-.64 1.08l-12.9 17.01h13.38v5.04H382.2v-2.73q0-.45.22-1.07.21-.63.63-1.18l13.04-17.2h-13.12v-5.01zm19.19 20.17v-4.59q-2.84.14-4.77.49-1.94.36-3.11.92-1.16.55-1.66 1.3-.51.74-.51 1.61 0 1.73 1.02 2.47t2.67.74q2.01 0 3.48-.73t2.88-2.21m-13.84-14.29-1.16-2.09q4.69-4.29 11.29-4.29 2.38 0 4.26.78t3.18 2.17 1.98 3.33q.67 1.93.67 4.24v17.17h-2.97q-.92 0-1.43-.28-.5-.28-.79-1.12l-.59-1.97q-1.03.93-2.01 1.63-.98.71-2.04 1.18-1.06.48-2.27.73-1.2.25-2.66.25-1.72 0-3.18-.46t-2.52-1.39-1.64-2.31q-.58-1.37-.58-3.2 0-1.04.34-2.06.35-1.02 1.13-1.94.78-.93 2.03-1.75 1.24-.82 3.06-1.43 1.81-.61 4.22-1 2.41-.38 5.52-.46v-1.59q0-2.73-1.17-4.04t-3.37-1.31q-1.59 0-2.63.37-1.05.37-1.84.83-.8.46-1.45.84-.65.37-1.44.37-.69 0-1.17-.36t-.77-.84m40.73 14.29v-4.59q-2.83.14-4.77.49-1.93.36-3.1.92-1.16.55-1.67 1.3-.5.74-.5 1.61 0 1.73 1.02 2.47t2.66.74q2.02 0 3.49-.73t2.87-2.21m-13.83-14.29-1.17-2.09q4.69-4.29 11.29-4.29 2.39 0 4.27.78t3.18 2.17 1.97 3.33q.68 1.93.68 4.24v17.17h-2.97q-.93 0-1.43-.28t-.79-1.12l-.59-1.97q-1.03.93-2.01 1.63-.98.71-2.04 1.18-1.06.48-2.27.73-1.2.25-2.66.25-1.72 0-3.18-.46t-2.52-1.39-1.64-2.31q-.58-1.37-.58-3.2 0-1.04.34-2.06t1.13-1.94q.78-.93 2.02-1.75 1.25-.82 3.06-1.43 1.82-.61 4.23-1 2.41-.38 5.51-.46v-1.59q0-2.73-1.16-4.04-1.17-1.31-3.37-1.31-1.59 0-2.64.37-1.04.37-1.84.83l-1.44.84q-.65.37-1.45.37-.68 0-1.16-.36t-.77-.84m32.14-4.24.4 3.08q1.27-2.44 3.02-3.83t4.14-1.39q1.88 0 3.02.82l-.43 4.9q-.13.48-.38.68t-.68.2q-.39 0-1.18-.14-.78-.13-1.52-.13-1.09 0-1.93.32-.85.32-1.53.91-.67.6-1.19 1.45t-.97 1.93v16.75h-6.54v-27.19h3.84q1.01 0 1.4.36.4.36.53 1.28"/></svg>