<svg xmlns="http://www.w3.org/2000/svg" width="1920" height="1080" viewBox="0 0 1920 1080"><rect width="100%" height="100%" fill="#f5f5f5"/><path fill="#000000" d="M425.205 542.335h36.34l-13.9-38q-1.03-2.53-2.14-6.01-1.1-3.47-2.21-7.5-1.03 4.03-2.13 7.54-1.11 3.52-2.13 6.13zm28.99-71.1 44.88 114.23h-16.44q-2.76 0-4.5-1.38-1.74-1.39-2.61-3.44l-8.53-23.3h-47.32l-8.53 23.3q-.63 1.82-2.45 3.32t-4.5 1.5h-16.59l44.95-114.23zm53.88-3.16h19.51v117.39h-19.51zm81.85 96.46v-13.67q-8.46.39-14.22 1.46-5.77 1.07-9.25 2.73-3.47 1.65-4.97 3.87-1.51 2.21-1.51 4.81 0 5.14 3.05 7.35 3.04 2.21 7.94 2.21 6 0 10.38-2.17 4.39-2.17 8.58-6.59m-41.24-42.59-3.48-6.24q13.98-12.8 33.66-12.8 7.11 0 12.71 2.34 5.61 2.33 9.48 6.47 3.88 4.15 5.89 9.92t2.01 12.64v51.19h-8.84q-2.77 0-4.27-.83t-2.37-3.36l-1.74-5.84q-3.08 2.76-6 4.86-2.92 2.09-6.08 3.51t-6.76 2.17q-3.59.75-7.94.75-5.13 0-9.48-1.38-4.34-1.38-7.5-4.15-3.16-2.76-4.9-6.87t-1.74-9.56q0-3.08 1.03-6.12 1.02-3.04 3.36-5.81 2.33-2.76 6.04-5.21t9.12-4.27q5.41-1.81 12.6-2.96t16.44-1.38v-4.74q0-8.14-3.48-12.05t-10.03-3.91q-4.74 0-7.86 1.11-3.12 1.1-5.49 2.48-2.37 1.39-4.31 2.49-1.94 1.11-4.31 1.11-2.05 0-3.47-1.07-1.42-1.06-2.29-2.49m95.51-13.98 1.34 6.4q2.45-2.45 5.18-4.54 2.72-2.1 5.76-3.56t6.52-2.29 7.58-.83q6.64 0 11.78 2.25 5.13 2.26 8.57 6.32 3.43 4.07 5.21 9.72t1.78 12.44v51.59h-19.51v-51.59q0-7.42-3.4-11.49t-10.35-4.07q-5.06 0-9.48 2.29t-8.37 6.24v58.62h-19.52v-81.05h11.93q3.79 0 4.98 3.55m115.02 56.57v-13.67q-8.45.39-14.22 1.46-5.76 1.07-9.24 2.73-3.48 1.65-4.98 3.87-1.5 2.21-1.5 4.81 0 5.14 3.04 7.35t7.94 2.21q6.01 0 10.39-2.17 4.39-2.17 8.57-6.59m-41.24-42.59-3.47-6.24q13.98-12.8 33.65-12.8 7.11 0 12.72 2.34 5.61 2.33 9.48 6.47 3.87 4.15 5.89 9.92 2.01 5.77 2.01 12.64v51.19h-8.85q-2.76 0-4.26-.83t-2.37-3.36l-1.74-5.84q-3.08 2.76-6 4.86-2.93 2.09-6.09 3.51t-6.75 2.17q-3.6.75-7.94.75-5.14 0-9.48-1.38-4.35-1.38-7.51-4.15-3.16-2.76-4.89-6.87-1.74-4.11-1.74-9.56 0-3.08 1.02-6.12 1.03-3.04 3.36-5.81 2.33-2.76 6.05-5.21 3.71-2.45 9.12-4.27 5.41-1.81 12.6-2.96t16.43-1.38v-4.74q0-8.14-3.47-12.05-3.48-3.91-10.04-3.91-4.74 0-7.86 1.11-3.12 1.1-5.49 2.48-2.37 1.39-4.3 2.49-1.94 1.11-4.31 1.11-2.05 0-3.47-1.07-1.43-1.06-2.3-2.49m198.53 36.58q1.74 0 3.08 1.34l8.38 9.09q-6.96 8.61-17.11 13.19t-24.37 4.58q-12.72 0-22.87-4.34-10.15-4.35-17.34-12.09t-11.02-18.48q-3.83-10.75-3.83-23.47 0-12.87 4.11-23.58 4.1-10.7 11.57-18.44 7.47-7.75 17.81-12.05 10.35-4.31 22.91-4.31 12.49 0 22.16 4.11 9.68 4.11 16.48 10.74l-7.11 9.88q-.64.95-1.62 1.66-.99.71-2.73.71-1.18 0-2.45-.67-1.26-.67-2.76-1.66t-3.48-2.17q-1.97-1.19-4.58-2.18-2.61-.98-6.04-1.66-3.44-.67-7.94-.67-7.67 0-14.03 2.73-6.36 2.72-10.94 7.9-4.58 5.17-7.11 12.64-2.53 7.46-2.53 17.02 0 9.64 2.73 17.15 2.72 7.5 7.39 12.64 4.66 5.13 10.98 7.86 6.32 2.72 13.58 2.72 4.35 0 7.87-.47 3.51-.48 6.47-1.5 2.97-1.03 5.61-2.65 2.65-1.62 5.26-3.99.79-.71 1.65-1.14.87-.44 1.82-.44m42.5-90.45v45.03q4.74-4.43 10.43-7.19 5.69-2.77 13.35-2.77 6.64 0 11.77 2.25 5.14 2.26 8.58 6.32 3.43 4.07 5.21 9.72t1.78 12.44v51.59h-19.52v-51.59q0-7.42-3.39-11.49-3.4-4.07-10.35-4.07-5.06 0-9.48 2.29-4.43 2.29-8.38 6.24v58.62h-19.51v-117.39zm112.42 96.46v-13.67q-8.45.39-14.22 1.46t-9.24 2.73q-3.48 1.65-4.98 3.87-1.5 2.21-1.5 4.81 0 5.14 3.04 7.35t7.94 2.21q6 0 10.39-2.17 4.38-2.17 8.57-6.59m-41.24-42.59-3.47-6.24q13.98-12.8 33.65-12.8 7.11 0 12.72 2.34 5.61 2.33 9.48 6.47 3.87 4.15 5.89 9.92 2.01 5.77 2.01 12.64v51.19h-8.85q-2.76 0-4.26-.83-1.51-.83-2.37-3.36l-1.74-5.84q-3.08 2.76-6.01 4.86-2.92 2.09-6.08 3.51t-6.75 2.17q-3.6.75-7.94.75-5.14 0-9.48-1.38-4.35-1.38-7.51-4.15-3.16-2.76-4.9-6.87-1.73-4.11-1.73-9.56 0-3.08 1.02-6.12 1.03-3.04 3.36-5.81 2.33-2.76 6.04-5.21 3.72-2.45 9.13-4.27 5.41-1.81 12.6-2.96t16.43-1.38v-4.74q0-8.14-3.48-12.05-3.47-3.91-10.03-3.91-4.74 0-7.86 1.11-3.12 1.1-5.49 2.48-2.37 1.39-4.3 2.49-1.94 1.11-4.31 1.11-2.05 0-3.48-1.07-1.42-1.06-2.29-2.49m98.12 63.52h-19.51v-81.05h11.93q3.79 0 4.97 3.55l1.27 6q2.13-2.36 4.46-4.34 2.33-1.97 4.98-3.4 2.64-1.42 5.69-2.25 3.04-.83 6.67-.83 7.66 0 12.6 4.15t7.39 11.02q1.89-4.03 4.74-6.91 2.84-2.89 6.24-4.7 3.4-1.82 7.23-2.69t7.7-.87q6.72 0 11.93 2.06 5.21 2.05 8.77 6 3.55 3.95 5.41 9.64t1.86 13.03v51.59h-19.52v-51.59q0-7.74-3.39-11.65-3.4-3.91-9.96-3.91-3 0-5.57 1.03-2.56 1.02-4.5 2.96-1.94 1.93-3.04 4.86-1.11 2.92-1.11 6.71v51.59h-19.59v-51.59q0-8.13-3.28-11.85-3.28-3.71-9.6-3.71-4.26 0-7.94 2.09-3.67 2.1-6.83 5.73zm132.33-57.35v36.34q3.31 4.03 7.22 5.68 3.91 1.66 8.5 1.66 4.42 0 7.98-1.66 3.55-1.65 6.04-5.05t3.83-8.57q1.34-5.18 1.34-12.21 0-7.11-1.14-12.05-1.15-4.93-3.28-8.02-2.13-3.08-5.17-4.5-3.05-1.42-6.92-1.42-6.08 0-10.35 2.57-4.26 2.56-8.05 7.23m-2.61-20.15 1.58 7.51q4.98-5.61 11.3-9.09t14.85-3.48q6.63 0 12.12 2.77 5.49 2.76 9.48 8.02 3.99 5.25 6.17 12.95 2.17 7.71 2.17 17.66 0 9.09-2.45 16.83t-6.99 13.43-10.98 8.89-14.42 3.2q-6.79 0-11.61-2.1-4.82-2.09-8.61-5.8v33.17h-19.52v-107.51h11.93q3.79 0 4.98 3.55m73.47-3.55h19.59v81.05h-19.59zm22.28-23.62q0 2.52-1.03 4.73-1.03 2.22-2.73 3.88-1.69 1.65-3.99 2.64-2.29.99-4.89.99-2.53 0-4.78-.99t-3.91-2.64q-1.66-1.66-2.65-3.88-.99-2.21-.99-4.73 0-2.61.99-4.9t2.65-3.95 3.91-2.65 4.78-.99q2.6 0 4.89.99 2.3.99 3.99 2.65 1.7 1.66 2.73 3.95t1.03 4.9m53.08 22.35q9.01 0 16.4 2.93 7.38 2.92 12.64 8.29 5.25 5.37 8.09 13.11 2.85 7.75 2.85 17.3 0 9.64-2.85 17.39-2.84 7.74-8.09 13.19-5.26 5.45-12.64 8.37-7.39 2.93-16.4 2.93-9.08 0-16.51-2.93-7.42-2.92-12.68-8.37-5.25-5.45-8.13-13.19-2.89-7.75-2.89-17.39 0-9.55 2.89-17.3 2.88-7.74 8.13-13.11 5.26-5.37 12.68-8.29 7.43-2.93 16.51-2.93m0 68.5q10.12 0 14.98-6.8 4.85-6.79 4.85-19.91 0-13.11-4.85-19.98-4.86-6.88-14.98-6.88-10.27 0-15.2 6.92-4.94 6.91-4.94 19.94 0 13.04 4.94 19.87 4.93 6.84 15.2 6.84m71.82-63.68 1.34 6.4q2.45-2.45 5.17-4.54 2.73-2.1 5.77-3.56t6.52-2.29q3.47-.83 7.58-.83 6.64 0 11.77 2.25 5.14 2.26 8.57 6.32 3.44 4.07 5.22 9.72t1.78 12.44v51.59h-19.52v-51.59q0-7.42-3.39-11.49-3.4-4.07-10.35-4.07-5.06 0-9.48 2.29-4.43 2.29-8.38 6.24v58.62h-19.51v-81.05h11.93q3.79 0 4.98 3.55"/></svg>