<svg xmlns="http://www.w3.org/2000/svg" width="600" height="800" viewBox="0 0 600 800"><rect width="100%" height="100%" fill="#f5f5f5"/><path fill="#000000" d="M162.34 367.295h8.14l-21.9 54.23h-9.12l-21.9-54.23h8.1q1.32 0 2.14.64.83.64 1.24 1.65l12.79 33.08q.63 1.61 1.22 3.54.58 1.93 1.1 4.03.45-2.1.98-4.03.52-1.93 1.16-3.54l12.71-33.08q.3-.86 1.18-1.57.88-.72 2.16-.72m32.62 44.29v-6.49q-4.01.19-6.75.7-2.73.51-4.38 1.29-1.65.79-2.37 1.84-.71 1.05-.71 2.29 0 2.43 1.45 3.48 1.44 1.06 3.76 1.06 2.85 0 4.94-1.04 2.08-1.03 4.06-3.13m-19.57-20.21-1.65-2.96q6.64-6.08 15.97-6.08 3.38 0 6.04 1.11 2.66 1.1 4.5 3.07t2.8 4.71q.95 2.74.95 6v24.3h-4.2q-1.31 0-2.02-.39-.72-.4-1.13-1.6l-.82-2.77q-1.47 1.31-2.85 2.3-1.39 1-2.89 1.67-1.5.68-3.21 1.03-1.7.36-3.77.36-2.43 0-4.5-.66-2.06-.65-3.56-1.96-1.5-1.32-2.32-3.27-.83-1.95-.83-4.53 0-1.47.49-2.91t1.59-2.76q1.11-1.31 2.87-2.47 1.76-1.17 4.33-2.03t5.98-1.4q3.42-.55 7.8-.66v-2.25q0-3.86-1.65-5.72t-4.76-1.86q-2.25 0-3.73.53t-2.61 1.18q-1.12.66-2.04 1.18-.92.53-2.04.53-.98 0-1.65-.51-.68-.5-1.09-1.18m45.34-6.64.63 3.04q1.17-1.16 2.46-2.16 1.29-.99 2.74-1.68 1.44-.7 3.09-1.09t3.6-.39q3.15 0 5.59 1.06 2.44 1.07 4.07 3 1.63 1.94 2.47 4.62.85 2.68.85 5.9v24.49h-9.27v-24.49q0-3.52-1.61-5.45-1.61-1.94-4.91-1.94-2.4 0-4.5 1.09t-3.98 2.97v27.82h-9.26v-38.48h5.66q1.8 0 2.37 1.69m34.57-1.69h9.3v38.48h-9.3zm10.58-11.21q0 1.2-.49 2.25t-1.29 1.84q-.81.79-1.9 1.26-1.09.46-2.32.46-1.2 0-2.27-.46-1.07-.47-1.86-1.26t-1.25-1.84q-.47-1.05-.47-2.25 0-1.23.47-2.32.46-1.09 1.25-1.88.79-.78 1.86-1.25t2.27-.47q1.23 0 2.32.47t1.9 1.25q.8.79 1.29 1.88t.49 2.32m21 50.29q-5.03 0-7.71-2.83t-2.68-7.82v-21.49h-3.94q-.75 0-1.27-.48-.53-.49-.53-1.47v-3.67l6.19-1.01 1.95-10.5q.19-.75.71-1.17.53-.41 1.35-.41h4.8v12.11h10.28v6.6h-10.28v20.85q0 1.8.88 2.81.88 1.02 2.42 1.02.86 0 1.45-.21.58-.2 1.01-.43.43-.22.77-.43.33-.21.67-.21.41 0 .68.21.26.21.56.62l2.77 4.5q-2.02 1.68-4.65 2.55-2.62.86-5.43.86m42.6-39.08h7.42l-20.96 49.05q-.41.98-1.07 1.49-.66.5-2.01.5h-6.9l7.2-15.45-15.56-35.59h8.14q1.09 0 1.71.53.61.53.91 1.2l8.18 19.95q.41 1.01.69 2.03.28 1.01.55 2.06.33-1.05.67-2.08t.75-2.05l7.73-19.91q.3-.75.99-1.24t1.56-.49m65.92-7.72h-24.07v16.05h20.32v8.06h-20.32v22.09H361.2v-54.23h34.2zm27.11 36.26v-6.49q-4.01.19-6.75.7-2.73.51-4.38 1.29-1.65.79-2.37 1.84-.71 1.05-.71 2.29 0 2.43 1.45 3.48 1.44 1.06 3.76 1.06 2.85 0 4.94-1.04 2.08-1.03 4.06-3.13m-19.57-20.21-1.65-2.96q6.64-6.08 15.97-6.08 3.38 0 6.04 1.11 2.66 1.1 4.5 3.07t2.8 4.71q.95 2.74.95 6v24.3h-4.2q-1.31 0-2.02-.39-.72-.4-1.13-1.6l-.82-2.77q-1.47 1.31-2.85 2.3-1.39 1-2.89 1.67-1.5.68-3.21 1.03-1.7.36-3.77.36-2.43 0-4.5-.66-2.06-.65-3.56-1.96-1.5-1.32-2.32-3.27-.83-1.95-.83-4.53 0-1.47.49-2.91t1.59-2.76q1.11-1.31 2.87-2.47 1.76-1.17 4.33-2.03t5.98-1.4q3.42-.55 7.8-.66v-2.25q0-3.86-1.65-5.72t-4.76-1.86q-2.25 0-3.73.53t-2.61 1.18q-1.12.66-2.04 1.18-.92.53-2.04.53-.98 0-1.65-.51-.68-.5-1.09-1.18m37.61-8.33h9.3v38.48h-9.3zm10.58-11.21q0 1.2-.49 2.25t-1.29 1.84q-.81.79-1.9 1.26-1.09.46-2.32.46-1.2 0-2.27-.46-1.07-.47-1.86-1.26t-1.25-1.84q-.47-1.05-.47-2.25 0-1.23.47-2.32.46-1.09 1.25-1.88.79-.78 1.86-1.25t2.27-.47q1.23 0 2.32.47t1.9 1.25q.8.79 1.29 1.88t.49 2.32m16.35 13.54.56 4.35q1.8-3.45 4.27-5.42 2.48-1.97 5.85-1.97 2.67 0 4.28 1.17l-.6 6.93q-.19.68-.54.96-.36.28-.96.28-.56 0-1.67-.19-1.11-.18-2.16-.18-1.53 0-2.73.45t-2.16 1.29-1.69 2.04-1.37 2.74v23.7h-9.26v-38.48h5.44q1.42 0 1.99.51.56.51.75 1.82"/></svg>